<svg id="Capa_1" data-name="Capa 1" xmlns="http://www.w3.org/2000/svg" viewBox="0 0 2000 757.91"><defs><style>.cls-1{fill:#00ad81;}.cls-2{fill:#ba7342;}.cls-3{fill:#00ce93;}.cls-4{fill:#9a5e36;}.cls-5{fill:#efb919;}.cls-6{fill:#fefefe;}.cls-7{fill:#fefefd;}.cls-8{fill:#61c7d1;}.cls-9{fill:#633619;}.cls-10{fill:#626566;}.cls-11{fill:#f5f4f4;}.cls-12{fill:#803e1d;}.cls-13{fill:#d1894e;}.cls-14{fill:#f9d88d;}.cls-15{fill:#ebb71c;}.cls-16{fill:#f9d78c;}.cls-17{fill:#f9d88c;}.cls-18{fill:#d08a4e;}.cls-19{fill:#f7d58a;}.cls-20{fill:#f4d289;}.cls-21{fill:#bfbdbd;}.cls-22{fill:#a2772b;}.cls-23{fill:#f6931f;}.cls-24{fill:#f6941f;}.cls-25{fill:#f69420;}.cls-26{fill:#eeeff0;}.cls-27{fill:#0a0b0c;}.cls-28{fill:#43434a;}.cls-29{fill:#0b0b0b;}.cls-30{fill:#1d1d1e;}.cls-31{fill:#020203;}.cls-32{fill:#2b2b2c;}.cls-33{fill:#343435;}.cls-34{fill:#0a0a0a;}.cls-35{fill:#121212;}.cls-36{fill:#1c1c1d;}.cls-37{fill:#48484a;}.cls-38{fill:#040405;}.cls-39{fill:#403f41;}.cls-40{fill:#070707;}.cls-41{fill:#515153;}.cls-42{fill:#4b4b4e;}.cls-43{fill:#3f3f41;}.cls-44{fill:#3d3c3e;}</style></defs><title>Logo 4 light</title><path class="cls-1" d="M579.21,441.3V323H603l42.88,51.1L688.65,323h24V441.3H690.78V354.54l-44.86,53.4-45-53.23V441.3Z"/><path class="cls-1" d="M753.55,441.3a22.74,22.74,0,0,1-22.68-22.68V368.67A22.72,22.72,0,0,1,753.55,346H805a22.7,22.7,0,0,1,22.67,22.67v49.95A22.72,22.72,0,0,1,805,441.3Zm4.6-21.53h42.23c3.06,0,4.79-.19,5.17-.57s.58-2.11.58-5.18V373.27c0-3.06-.19-4.79-.58-5.17s-2.11-.58-5.17-.58H758.15c-3.07,0-4.79.19-5.18.58s-.57,2.11-.57,5.17V414c0,3.07.19,4.79.57,5.18S755.08,419.77,758.15,419.77Z"/><path class="cls-1" d="M863.8,441.3a22.74,22.74,0,0,1-22.68-22.68V346h21.53v68c0,3.07.19,4.79.57,5.18s2.11.57,5.18.57h42.23c3.06,0,4.79-.19,5.17-.57s.58-2.11.58-5.18V346H937.9v72.62a22.72,22.72,0,0,1-22.67,22.68Z"/><path class="cls-1" d="M956.3,441.3V346h74.11a22.72,22.72,0,0,1,22.68,22.67V441.3h-21.53v-68c0-3.06-.19-4.79-.58-5.17s-2.11-.58-5.17-.58H983.58c-3.07,0-4.79.19-5.17.58s-.58,2.11-.58,5.17v68Z"/><path class="cls-1" d="M1093.18,441.3a22.74,22.74,0,0,1-22.68-22.68V316.75H1092V346h37.13v21.52H1092V414c0,3.07.19,4.79.57,5.18s2.11.57,5.18.57h31.38V441.3Z"/><path class="cls-1" d="M1165,441.3a22.74,22.74,0,0,1-22.68-22.68V382.8h75.26v-9.53c0-3.06-.19-4.79-.58-5.17s-2.11-.58-5.17-.58H1142.3V346h74.11a22.7,22.7,0,0,1,22.67,22.67V441.3Zm4.6-21.53h48V402.19h-53.73V414c0,3.07.19,4.79.57,5.18S1166.51,419.77,1169.58,419.77Z"/><path class="cls-1" d="M1256.33,336.47V314.78h21.53v21.69Zm0,104.83V346h21.53v95.3Z"/><path class="cls-1" d="M1290.67,441.3V346h74.11a22.7,22.7,0,0,1,22.67,22.67V441.3h-21.52v-68c0-3.06-.19-4.79-.58-5.17s-2.11-.58-5.17-.58H1318c-3.07,0-4.79.19-5.18.58s-.57,2.11-.57,5.17v68Z"/><path class="cls-2" d="M1456,441.3V323h95.3a23,23,0,0,1,23,22.84v72.63a23,23,0,0,1-23,22.84Zm27.44-21.86h63.26c3,0,4.66-.19,5.09-.57s.66-2.11.66-5.18V350.6c0-3.07-.22-4.79-.66-5.18s-2.13-.57-5.09-.57h-63.26c-3.07,0-4.79.19-5.17.57s-.58,2.11-.58,5.18v63.09c0,3.07.19,4.8.58,5.18S1480.34,419.44,1483.41,419.44Z"/><path class="cls-2" d="M1614.53,441.3a22.72,22.72,0,0,1-22.67-22.68V368.67A22.7,22.7,0,0,1,1614.53,346H1666a22.72,22.72,0,0,1,22.68,22.67v35.82h-75.26V414c0,3.07.19,4.79.58,5.18s2.11.57,5.17.57h69.51V441.3Zm-1.15-56.2h53.73V373.27c0-3.06-.19-4.79-.57-5.17s-2.11-.58-5.18-.58h-42.23c-3.06,0-4.79.19-5.17.58s-.58,2.11-.58,5.17Z"/><path class="cls-1" d="M1706.71,441.3V323h108.94v21.86h-87.09v26.29h70v22h-70V441.3Z"/><path class="cls-1" d="M1824.52,336.47V314.78H1846v21.69Zm0,104.83V346H1846v95.3Z"/><polygon class="cls-3" points="428.35 271.37 399.2 301.82 342.64 241.14 286.09 301.82 256.94 271.37 163.4 378.83 233.44 468.88 283.04 468.88 342.64 522.4 402.25 468.88 451.84 468.88 521.89 378.83 428.35 271.37"/><polygon class="cls-1" points="420 295.82 393.69 323.3 342.64 268.53 291.59 323.3 265.28 295.82 178.73 398.54 244.51 452.8 298.07 454.78 342.64 522.4 386.01 463.7 433.29 452.46 506.56 398.54 420 295.82"/><polygon class="cls-2" points="342.64 295.92 420.39 398.54 433.18 398.54 420.39 375.7 427.89 336.47 476.82 398.54 506.56 398.54 451.84 468.88 402.25 468.88 342.64 522.4 283.04 468.88 233.44 468.88 178.73 398.54 208.47 398.54 257.4 336.47 264.89 375.7 252.11 398.54 264.89 398.54 342.64 295.92 342.64 295.92"/><polygon class="cls-4" points="476.82 398.54 430.86 351.46 426.31 378.02 433.18 398.54 420.39 398.54 342.64 314.16 264.89 398.54 252.11 398.54 258.91 377.66 254.43 351.46 208.47 398.54 178.73 398.54 233.44 468.88 283.04 468.88 342.64 522.4 402.25 468.88 451.84 468.88 506.56 398.54 476.82 398.54"/><circle class="cls-5" cx="504.84" cy="403.56" r="26.49"/><path class="cls-6" d="M515.71,411.18c-.27.31-.49.58-.73.82-3.15,3.14-6.33,6.26-9.46,9.42-.56.56-.89.58-1.45,0q-4.74-4.81-9.55-9.56c-.53-.52-.68-.88,0-1.44a37.64,37.64,0,0,0,2.68-2.68c.56-.62.93-.51,1.46,0,1.77,1.81,3.62,3.53,5.36,5.37.71.75,1.09.64,1.75,0,1.67-1.76,3.47-3.4,5.13-5.17.71-.75,1.15-.69,1.79,0s1.63,1.65,2.45,2.48C515.29,410.67,515.47,410.9,515.71,411.18Z"/><path class="cls-6" d="M515.68,396.57c-.39.42-.71.8-1.08,1.14-1,.89-1.74,2.52-2.85,2.53s-1.91-1.63-2.87-2.53-2.22-2.07-3.24-3.2c-.66-.73-1.05-.61-1.68,0-1.76,1.82-3.6,3.55-5.37,5.37-.54.55-.89.61-1.43,0a35.67,35.67,0,0,0-2.68-2.68c-.62-.57-.5-.92,0-1.46q4.82-4.74,9.57-9.56c.47-.47.78-.62,1.33-.05,3.24,3.28,6.51,6.53,9.77,9.79C515.36,396.14,515.49,396.34,515.68,396.57Z"/><path class="cls-7" d="M494.55,403.83c-.24.28-.42.51-.63.72-.82.83-1.71,1.6-2.44,2.49s-1.23.71-1.86-.06c-.92-1.13-2.83-2-2.75-3.2.06-1.07,1.81-2,2.73-3.07.67-.77,1.17-.92,1.89-.06s1.64,1.66,2.45,2.48C494.15,403.34,494.33,403.57,494.55,403.83Z"/><path class="cls-6" d="M504.83,399.88c.37.35.71.64,1,1,.95,1,2.53,1.9,2.64,3s-1.73,1.91-2.55,3-1.47,1-2.3,0a21.9,21.9,0,0,0-2.35-2.37c-.48-.45-.47-.76,0-1.21,1-.89,1.86-1.85,2.79-2.77A6.38,6.38,0,0,1,504.83,399.88Z"/><path class="cls-7" d="M523,403.87l-1.29,1.38c-2.53,2.75-2.53,2.75-5.14.14a6.73,6.73,0,0,0-.76-.75c-.77-.57-.64-1,0-1.64,3.48-3.53,3.52-3.55,6.7.28Z"/><circle class="cls-5" cx="181.21" cy="404.32" r="27.25"/><path class="cls-6" d="M193,397.24c-.23.27-.41.51-.62.72q-8.66,8.66-17.3,17.33c-.51.51-.82.56-1.33,0-1.15-1.23-2.34-2.43-3.58-3.57-.65-.6-.44-1,.08-1.46q8.63-8.58,17.2-17.21c.55-.56.9-.63,1.46,0,1.11,1.19,2.3,2.31,3.45,3.47C192.6,396.72,192.78,397,193,397.24Z"/><path class="cls-6" d="M199.94,404.13c-.24.27-.43.51-.64.72q-8.6,8.59-17.18,17.21c-.61.62-1,.63-1.58,0-1.11-1.19-2.27-2.34-3.46-3.45-.6-.56-.53-.91,0-1.46q8.63-8.56,17.19-17.19c.62-.62,1-.62,1.57,0,1.11,1.2,2.3,2.32,3.45,3.47C199.52,403.64,199.71,403.87,199.94,404.13Z"/><path class="cls-6" d="M174.21,402.28c-.27-.22-.51-.4-.71-.6-1.16-1.15-2.29-2.33-3.48-3.45-.56-.53-.63-.87,0-1.46q5.34-5.26,10.6-10.6c.55-.56.9-.63,1.46,0,1.15,1.23,2.35,2.4,3.57,3.57.45.43.55.73,0,1.22-3.63,3.59-7.22,7.21-10.83,10.81C174.66,401.93,174.46,402.07,174.21,402.28Z"/><path class="cls-6" d="M172.36,404.15c-.23.26-.42.5-.63.71-1.14,1.15-2.32,2.27-3.43,3.46-.54.57-.91.62-1.47,0q-1.72-1.83-3.56-3.55c-.56-.53-.46-.87,0-1.35,1.21-1.15,2.38-2.35,3.56-3.55.39-.39.7-.68,1.23-.12,1.26,1.33,2.58,2.6,3.86,3.89A5.6,5.6,0,0,1,172.36,404.15Z"/><circle class="cls-8" cx="450.33" cy="471.84" r="27.25"/><path class="cls-9" d="M435.31,469.91a1.13,1.13,0,0,1,.16-.26,3.76,3.76,0,0,0,1-4.07c-.61-2.35.66-4.31,2.53-5.78,3.68-2.91,7.9-3.69,12.45-3.14a19.58,19.58,0,0,1,7.25,2,69.22,69.22,0,0,1,7.58,7.64,5.34,5.34,0,0,1,.35,5.07,2.25,2.25,0,0,1-.54,2,5.77,5.77,0,0,1-2.15,2.1c-4.05,1.87-7.4,5.19-12.06,5.81-5.35.7-10.36,0-14.88-3.23-1.58-1.12-2.06-2.81-2.8-4.4A6.56,6.56,0,0,1,435.31,469.91Z"/><path class="cls-10" d="M435.31,469.91a7.42,7.42,0,0,0-.36,3.68,11.65,11.65,0,0,0,1.4,6.09,3.31,3.31,0,0,0,1.53,2.13c5.18,3.42,10.84,4.13,16.82,3.1a18.38,18.38,0,0,0,8.63-3.83,4.07,4.07,0,0,0,1.85-2.95c.64-1.68.28-3.48.56-5.21l.9-1.5a9.05,9.05,0,0,1-1.9,11c-7,6.71-22.45,6.47-29.21-.44A9.13,9.13,0,0,1,435.31,469.91Z"/><path class="cls-11" d="M465.74,472.92c1,1.79.54,3.64.23,5.49a14.53,14.53,0,0,1-7.08,5c-7.33,2.69-14.45,2.61-21.24-1.66a7.28,7.28,0,0,1-2-1.78c-1-2-1.64-4.12-.65-6.36a5.94,5.94,0,0,0,2.68,4.05c5.92,3.91,12.34,4.58,18.56,1.44C459.5,477.41,463.27,476.06,465.74,472.92Z"/><path class="cls-12" d="M451.38,461.12a6.7,6.7,0,0,1,2.6,1.19c2.12,1.38,2.32,3.36.44,5a8.5,8.5,0,0,1-7,2.1c-2.37-.34-3.79.77-3.87,3.21,0,1.11,0,2.23-.06,3.34,0,.46-.18,1-.77.92s-.65-.48-.65-.9c0-2.06-.37-4.18.77-6.07a1.3,1.3,0,0,0-.24-1.89c-3.73-2.72-1.91-5.37,1.41-6.86a7.53,7.53,0,0,1,1.15-.32c.3.58-.09,1.07-.23,1.59a1.57,1.57,0,0,0,.65,1.85,5.06,5.06,0,0,0,5.15-.07,1.52,1.52,0,0,0,.71-1.82C451.27,462,451.08,461.56,451.38,461.12Z"/><path class="cls-13" d="M438.06,466.58a4.73,4.73,0,0,1,1.7-5.64c4.38-3.53,9.34-3.58,14.5-2.42a11.87,11.87,0,0,1,5.3,2.47c1.89,1.62,2.41,3.55,1.54,5.62a9.39,9.39,0,0,1-6.38,3.7c-.56.11-1.12.17-1.48-.42a11.91,11.91,0,0,0,2.95-2.58,3.63,3.63,0,0,0-.23-5.08c-3.76-4.17-11.6-4.29-15.51-.25-1.62,1.67-1.51,3.52-.52,5.44C438.89,468.07,438.65,466.92,438.06,466.58Z"/><path class="cls-13" d="M448.08,473.25a23.59,23.59,0,0,0,7.78-1c3.63-1.21,6.38-3.27,7.2-7.26,2.66,1.53,3.48,4.44,1.83,6.41-2.07,2.43-4.91,3.26-7.89,3.63a18.77,18.77,0,0,1-7.49-.58C448.88,474.32,448,474.25,448.08,473.25Z"/><path class="cls-14" d="M448.08,473.25a17.91,17.91,0,0,0,15.35-1c.48-.27,1-.53,1.46-.79a3.31,3.31,0,0,1-2,2.37c-5.68,3.42-11.49,3.19-17.36.49-.48-.22-.89-.53-.69-1.17s.72-.31,1.11-.25C446.69,473,447.38,473.13,448.08,473.25Z"/><path class="cls-15" d="M451.38,461.12c1.52,2.17,1,3.59-1.55,4.33a5.9,5.9,0,0,1-3.28,0c-2.78-.76-3.31-2.47-1.41-4.61A6.64,6.64,0,0,1,451.38,461.12Z"/><path class="cls-13" d="M436.54,474.19a3.07,3.07,0,0,1-.33-2.05,3.37,3.37,0,0,1,1.68-3c.73-.32,2.9,2.27,2.89,3.28,0,1.21,0,2.42,0,3.62-1.11.78-2,0-2.82-.51A4.57,4.57,0,0,1,436.54,474.19Z"/><path class="cls-16" d="M453.24,469.89a15.61,15.61,0,0,0,7.86-3.28,4.24,4.24,0,0,1-1.74,2.41c-4.23,3-8.88,3.55-14.12,2.32.94-1,1.86-.42,2.66-.51s1.82-.06,2.71-.21S452.36,470.14,453.24,469.89Z"/><path class="cls-17" d="M451.43,477.52h4.62c-4.44,2.51-9,2.64-14.08,1a3,3,0,0,0,2.73-1.32A2.83,2.83,0,0,1,447,477,15.73,15.73,0,0,0,451.43,477.52Z"/><path class="cls-18" d="M451.43,477.52a12.82,12.82,0,0,1-6.73-.33c0-.55.06-1.1.1-1.91A24.84,24.84,0,0,0,451.43,477.52Z"/><path class="cls-19" d="M436.54,474.19a23.68,23.68,0,0,0,4.19,1.84,3.42,3.42,0,0,0,.64,2A6.14,6.14,0,0,1,436.54,474.19Z"/><path class="cls-20" d="M438.06,466.58l1.87.84c.47.44.93.89,1.41,1.32.25.22.38.41.17.75s-.5.25-.74.09C439.64,468.78,438.42,468.06,438.06,466.58Z"/><path class="cls-21" d="M435.6,480c9.79,6.53,21.44,5.94,30.37-1.54a8.45,8.45,0,0,1-3.91,4.45c-4.5,2.87-9.51,3.56-14.71,3a17.67,17.67,0,0,1-10.13-4A4.29,4.29,0,0,1,435.6,480Z"/><path class="cls-22" d="M449.79,463.17a1.83,1.83,0,0,1-1.67,1.17c-.68,0-1.54-.44-1.45-1.24s.94-1,1.66-1A1.57,1.57,0,0,1,449.79,463.17Z"/><circle class="cls-23" cx="234.96" cy="471.84" r="27.25"/><path class="cls-6" d="M243.26,472.21c2.89,2.47,3.38,4.06,2.27,7.09s-3,4.22-6.42,4.21a6.88,6.88,0,0,1-2.14-.14c-1.42-.48-1.83.19-2,1.4-.08.56-.32,1.09-.38,1.65-.13,1.32-.72,1.44-1.95,1.15s-1.4-.84-1.05-1.88c.21-.63.29-1.31.52-1.94.37-1,.1-1.45-1-1.64-.74-.13-1,0-1.16.69-.18,1-.5,1.89-.66,2.85-.19,1.16-.88.87-1.58.63s-1.81,0-1.42-1.39a26.06,26.06,0,0,1,.66-2.53c.45-1.11-.05-1.43-1-1.62-1.2-.25-2.38-.62-3.58-.88-.67-.14-.89-.4-.57-1a8.86,8.86,0,0,0,.55-1.27c.31-1,.83-1.42,1.93-1,1.25.53,2,.09,2.29-1.31.85-3.7,1.82-7.37,2.74-11.06.47-1.9.22-2.27-1.71-2.84-.49-.14-1.35,0-1.31-.75a9,9,0,0,1,.64-2.52c.13-.34.55-.08.83,0,1.14.28,2.31.51,3.42.87s1.76.23,1.88-1.06a11.61,11.61,0,0,1,.35-1.5c.44-1.75,1.34-2.11,2.93-1.22.52.28.39.64.29,1-.2.8-.35,1.61-.61,2.39s-.33,1.39.8,1.65,1.25-.26,1.41-1c.12-.56.31-1.1.38-1.65.17-1.33.66-1.77,2.11-1.35,1.19.34,1.3.8,1,1.8a6.34,6.34,0,0,0-.64,3c.22,1,1.66,1,2.5,1.5,1.86,1.15,3.22,2.56,3.09,4.93A4.89,4.89,0,0,1,243.26,472.21Z"/><path class="cls-24" d="M236.43,479.31h-.31a16,16,0,0,1-4.77-1,36.35,36.35,0,0,1,1.27-5.65c.13-.6.58-.41,1-.33a15.68,15.68,0,0,1,4.22,1.37c1.76.91,2.46,2.11,2.1,3.5S238.39,479.3,236.43,479.31Z"/><path class="cls-25" d="M237.44,469.89c-3.79-.13-4-.45-3.14-4.09.62-2.53.62-2.54,3.18-1.72a9.9,9.9,0,0,1,1.27.51c1.72.82,2.41,1.93,2.07,3.31S239.3,470,237.44,469.89Z"/><path class="cls-26" d="M342.56,362.92c8.17,8.66,16.32,17.32,25.36,25.1,1.55,1.33,3,2.81,4.42,4.29,8.83,9.15,18.34,17.63,26.7,27.24-8.2,9.93-18,18.31-26.84,27.59-2.56,2.67-5.08,5.41-7.87,7.82-7.16,6.18-13.72,13-20.36,19.67-1.37,1.39-2.2,1.44-3.61,0Q314,448.14,287.44,421.77c-2.38-2.36-.72-3.43.75-4.9q25.31-25.28,50.57-50.58c1.06-1.06,2-2.24,3-3.37Z"/><path class="cls-27" d="M363.8,443.48c-2.53,2.52-6,1.8-9,2.38-6.77,1.29-13.61,2.21-20.41,3.28a6.77,6.77,0,0,1-1.14-4.64,12.59,12.59,0,0,1,.32-2.74c.9-2.61.12-5.39.78-8,.76-2.15.46-4.39.51-6.6,0-1.75,0-3.5,0-5.24a11.24,11.24,0,0,1,.17-1.84,35.77,35.77,0,0,0,1.13-7.9,3.1,3.1,0,0,1,.4-1.06c1.65-1.54,3.34-3,5.75-3.27a2.55,2.55,0,0,1,1.37.9,17.64,17.64,0,0,1,1.12,1.86c.65,1.21,1.48,2.32,2.11,3.55a6.25,6.25,0,0,0,1,1.55c.48.36,1.17.35,1.58.84a17.83,17.83,0,0,1,1,2.22c.31.62.61,1.24.91,1.86.18.33.33.66.49,1,3.56,6.29,7.11,12.6,10.84,18.79A10.48,10.48,0,0,1,363.8,443.48Z"/><path d="M363.8,443.48c-5-7-8.9-14.65-13-22.18,3.37-5.29,7.86-9.67,11.89-14.42.68-.8,1.55-1.6,2.82-1.19.67,1,1.29,2,2,3,4.73,6.39,6.85,12.83,2.3,20.5C367.2,433.58,365.77,438.69,363.8,443.48Z"/><path class="cls-28" d="M342.56,408.16l-5.71,3.32a5.9,5.9,0,0,1-2.28-1.07,15.16,15.16,0,0,1-2.43-2,14.93,14.93,0,0,0-2.88-2.3,18.83,18.83,0,0,1-2-1.76c-1.08-1.4-3-1.93-3.69-3.74.08-2,1.91-1.73,3-2.15,6.22-2.34,12.59-4.3,18.72-6.85,3.6-1.49,6.65-1.6,9.79.78,1.7,1.28,3.95,1.74,5.4,3.43,0,.13,0,.31-.13.38-3.74,3.13-7.1,6.68-10.77,9.89a2.41,2.41,0,0,1-1.07-.13C345.77,404.66,344.6,407.63,342.56,408.16Z"/><path d="M323.54,400.66c1.66.78,3.32,1.59,4.25,3.31,1.16,4.31-.72,8.32-1.29,12.45-.86,6.22-2,12.39-3.27,18.54-.27,1.31-.12,3.2-2.42,2.94-2.76-2.22-5.47-4.48-8.29-6.62-1.24-.95-1.2-1.84-.64-3.15C315.81,419,319.66,409.82,323.54,400.66Z"/><path class="cls-29" d="M329.46,405.56a4.62,4.62,0,0,1,3.26,2.58,12.37,12.37,0,0,1,0,4.85c-1.55,8.26-2.81,16.59-4.47,24.83-.35,1.72-.12,4.05-3,4.05-.89-.15-1.28-.84-1.66-1.55a5.09,5.09,0,0,1-.6-3.51c1.55-9.36,3.35-18.67,5-28C328.18,407.61,328.34,406.35,329.46,405.56Z"/><path class="cls-30" d="M325.27,441.87c3.06-3.56,2.29-8.16,3.23-12.27,1.64-7.1,2.19-14.42,4.22-21.46l2.38,1.71c1.72,3.43-.11,6.73-.66,10-1.23,7.27-2.32,14.58-3.92,21.78-.27,1.22,0,2.94-2.1,2.82Z"/><path class="cls-31" d="M329.46,405.56q-2.73,15.76-5.46,31.54c-.18,1.06-.26,2.15-.39,3.22a6,6,0,0,1-2.8-2.42c2.47-3.49,2-7.71,2.79-11.59,1.56-7.41,2.81-14.89,4.19-22.34Z"/><path class="cls-32" d="M349.15,405.69c3.45-3.65,6.57-7.66,11.31-9.82l.81,1.61c-4.81,5.79-9.86,11.39-14.6,17.25-1.09-1.21-2.24-2.38-2.49-4.1A47.3,47.3,0,0,1,349.15,405.69Z"/><path class="cls-33" d="M328.42,444.42c1.87-4.4,2.07-9.15,2.92-13.76,1.28-6.94,2.51-13.88,3.76-20.81a2.62,2.62,0,0,1,1.75,1.63v0c-.71,2.78-.54,5.7-1.33,8.47-.55,7.33-2.1,14.51-3.36,21.73-.29,1.7-.29,3.69-2.88,3.56Z"/><path class="cls-34" d="M350,418.83c-1-.59-.79-1.56-.82-2.46a1.69,1.69,0,0,1,.34-1.89c3.24-4.24,6.72-8.28,10.36-12.19.81-.87,1.67-1.88,3.14-1.52l1.3,2.3C359.86,408.65,356,414.72,350,418.83Z"/><path class="cls-35" d="M363,400.77c-5.44,4.47-9.31,10.33-13.84,15.6-.55.06-1.09.92-1.64,0a3.56,3.56,0,0,1,.92-4.07c3.54-3.91,7-7.93,10.32-12,.8-1,1.74-2.3,3.39-1.19Z"/><path class="cls-36" d="M362.13,399.11c-3.71.92-4.9,4.56-7,7-2.73,3.2-6.71,5.65-7.63,10.25a1.68,1.68,0,0,1-.83-1.65c-.22-3.78,3.23-5.25,5.16-7.44,3-3.39,4.88-7.94,9.44-9.81Z"/><path class="cls-37" d="M335.9,421.36v5.72c-.92,2.12.29,4.47-.71,6.59-.38,2.73.69,5.62-.81,8.24a.78.78,0,0,1-.37-.66c0-.3.05-.21-.1.18-.76,2,.89,4.75-1.89,6.11L330.18,446c2.31-3.94,1.78-8.54,2.85-12.78a56,56,0,0,0,1.79-11C334.85,421.54,335.26,421.26,335.9,421.36Z"/><path class="cls-38" d="M365.51,405.69c-4.3,3.4-7.28,8-10.82,12.05a45.35,45.35,0,0,1-3.89,3.56c0-.27,0-.55,0-.82a1.28,1.28,0,0,1,0-1.83c4.25-4.51,8-9.46,12.19-14a1.51,1.51,0,0,1,1.76-.61C365.18,404.5,365.77,404.9,365.51,405.69Z"/><path class="cls-39" d="M335.9,421.36c-1.34,7.09-2.73,14.18-4,21.29-.24,1.38-.24,2.7-1.74,3.34l-.89-.79c3-2,1.81-5.41,2.48-8.13,1.42-5.73,2.3-11.6,3.39-17.41.25-.4.5-.4.74,0Z"/><path class="cls-40" d="M364.74,404a95.3,95.3,0,0,0-13.95,16.44,1.71,1.71,0,0,1-.83-1.65c4.91-5.12,8.66-11.31,14.32-15.76Z"/><path class="cls-41" d="M332,447.54c1.15-2.59,1.31-5.39,1.73-8.19,1,.7.38,1.74.63,2.56-.05.82-.11,1.64-.16,2.45-.81,1.37.36,3.11-.83,4.41Z"/><path class="cls-37" d="M333.38,448.77c.38-1.45-.39-3.12.83-4.41l.18,4.78A.71.71,0,0,1,333.38,448.77Z"/><path class="cls-42" d="M342.56,408.16c.66-2.87,3.52-3.1,5.48-4.22.86-.5.43,1.05.27,1.73-.31,1.52-1.55,2.41-2.42,3.53s-1.79.85-2.56-.21Z"/><path class="cls-43" d="M343.33,409c3.22,1.23,2.72-3.12,5-3.32l.84,0a6.58,6.58,0,0,1-5,4.94C343.9,410.08,343.62,409.53,343.33,409Z"/><path class="cls-44" d="M335.9,419.66h-.74c.3-2.8.38-5.64,1.7-8.22C337.06,414.24,337.35,417.05,335.9,419.66Z"/><path class="cls-39" d="M335.18,433.67c.28-2.19-.75-4.53.71-6.59C335.73,429.29,336.66,431.61,335.18,433.67Z"/></svg>