<svg id="Capa_1" data-name="Capa 1" xmlns="http://www.w3.org/2000/svg" viewBox="0 0 1000 1000"><defs><style>.cls-1{fill:#009864;}.cls-2{fill:#844b22;}.cls-3{fill:#00ad81;}.cls-4{fill:#9a5e36;}.cls-5{fill:#efb919;}.cls-6{fill:#fefefe;}.cls-7{fill:#fefefd;}.cls-8{fill:#61c7d1;}.cls-9{fill:#633619;}.cls-10{fill:#626566;}.cls-11{fill:#f5f4f4;}.cls-12{fill:#803e1d;}.cls-13{fill:#d1894e;}.cls-14{fill:#f9d88d;}.cls-15{fill:#ebb71c;}.cls-16{fill:#f9d78c;}.cls-17{fill:#f9d88c;}.cls-18{fill:#d08a4e;}.cls-19{fill:#f7d58a;}.cls-20{fill:#f4d289;}.cls-21{fill:#bfbdbd;}.cls-22{fill:#a2772b;}.cls-23{fill:#f6931f;}.cls-24{fill:#f6941f;}.cls-25{fill:#f69420;}.cls-26{fill:#eeeff0;}.cls-27{fill:#0a0b0c;}.cls-28{fill:#43434a;}.cls-29{fill:#0b0b0b;}.cls-30{fill:#1d1d1e;}.cls-31{fill:#020203;}.cls-32{fill:#2b2b2c;}.cls-33{fill:#343435;}.cls-34{fill:#0a0a0a;}.cls-35{fill:#121212;}.cls-36{fill:#1c1c1d;}.cls-37{fill:#48484a;}.cls-38{fill:#040405;}.cls-39{fill:#403f41;}.cls-40{fill:#070707;}.cls-41{fill:#515153;}.cls-42{fill:#4b4b4e;}.cls-43{fill:#3f3f41;}.cls-44{fill:#3d3c3e;}</style></defs><title>Logo 3 dark</title><path class="cls-1" d="M97.52,719.65V644.48h15.14L139.91,677l27.14-32.47H182.3v75.17H168.41V664.53l-28.5,33.93L111.3,664.63v55Z"/><path class="cls-1" d="M208.29,719.65a14.44,14.44,0,0,1-14.41-14.41V673.5a14.43,14.43,0,0,1,14.41-14.4H241a14.43,14.43,0,0,1,14.41,14.4v31.74A14.44,14.44,0,0,1,241,719.65ZM211.22,706h26.83c1.95,0,3-.13,3.29-.37s.36-1.34.36-3.29V676.43c0-1.95-.12-3-.36-3.29s-1.34-.37-3.29-.37H211.22c-1.95,0-3.05.13-3.29.37s-.37,1.34-.37,3.29v25.89c0,1.95.12,3,.37,3.29S209.27,706,211.22,706Z"/><path class="cls-1" d="M278.35,719.65a14.44,14.44,0,0,1-14.41-14.41V659.1h13.68v43.22c0,1.95.12,3,.36,3.29s1.34.37,3.29.37H308.1c1.95,0,3-.13,3.29-.37s.37-1.34.37-3.29V659.1h13.68v46.14A14.44,14.44,0,0,1,311,719.65Z"/><path class="cls-1" d="M337.13,719.65V659.1h47.08a14.43,14.43,0,0,1,14.41,14.4v46.15H385V676.43c0-1.95-.13-3-.37-3.29s-1.34-.37-3.29-.37H354.46c-1.95,0-3,.13-3.29.37s-.37,1.34-.37,3.29v43.22Z"/><path class="cls-1" d="M424.1,719.65a14.44,14.44,0,0,1-14.41-14.41V640.51h13.68V659.1H447v13.67H423.37v29.55c0,1.95.12,3,.36,3.29s1.34.37,3.29.37H447v13.67Z"/><path class="cls-1" d="M469.72,719.65a14.44,14.44,0,0,1-14.41-14.41V682.48h47.82v-6.05c0-1.95-.12-3-.36-3.29s-1.34-.37-3.29-.37H455.31V659.1H502.4a14.43,14.43,0,0,1,14.41,14.4v46.15ZM472.65,706h30.48V694.8H469v7.52c0,1.95.12,3,.37,3.29S470.7,706,472.65,706Z"/><path class="cls-1" d="M527.77,653V639.26h13.68V653Zm0,66.61V659.1h13.68v60.55Z"/><path class="cls-1" d="M549.59,719.65V659.1h47.09a14.43,14.43,0,0,1,14.41,14.4v46.15H597.41V676.43c0-1.95-.12-3-.37-3.29s-1.34-.37-3.28-.37H566.92c-1.95,0-3,.13-3.29.37s-.36,1.34-.36,3.29v43.22Z"/><path class="cls-2" d="M654.62,719.65V644.48h60.56A14.61,14.61,0,0,1,729.8,659v46.15a14.61,14.61,0,0,1-14.62,14.51Zm17.44-13.88h40.2c1.88,0,3-.12,3.23-.37s.42-1.34.42-3.29V662c0-1.95-.14-3-.42-3.29s-1.35-.36-3.23-.36h-40.2c-1.95,0-3,.12-3.29.36s-.36,1.34-.36,3.29v40.09c0,1.95.12,3,.36,3.29S670.11,705.77,672.06,705.77Z"/><path class="cls-2" d="M755.38,719.65A14.44,14.44,0,0,1,741,705.24V673.5a14.43,14.43,0,0,1,14.41-14.4h32.68a14.43,14.43,0,0,1,14.4,14.4v22.77H754.65v6.05c0,1.95.12,3,.36,3.29s1.34.37,3.29.37h44.16v13.67Zm-.73-35.7h34.14v-7.52c0-1.95-.13-3-.37-3.29s-1.34-.37-3.29-.37H758.3c-1.95,0-3,.13-3.29.37s-.36,1.34-.36,3.29Z"/><path class="cls-1" d="M814,719.65V644.48h69.22v13.89H827.83v16.7h44.48v14H827.83v30.59Z"/><path class="cls-1" d="M888.8,653V639.26h13.68V653Zm0,66.61V659.1h13.68v60.55Z"/><polygon class="cls-3" points="602.19 316.26 567.57 352.44 500.38 280.35 433.2 352.44 398.57 316.26 287.46 443.91 370.67 550.89 429.58 550.89 500.38 614.46 571.18 550.89 630.1 550.89 713.31 443.91 602.19 316.26"/><polygon class="cls-1" points="592.28 345.3 561.02 377.95 500.38 312.88 439.74 377.95 408.49 345.3 305.67 467.33 383.81 531.78 447.44 534.13 500.38 614.46 551.9 544.74 608.06 531.38 695.09 467.33 592.28 345.3"/><polygon class="cls-4" points="500.38 345.42 592.74 467.33 607.93 467.33 592.74 440.2 601.64 393.6 659.77 467.33 695.09 467.33 630.1 550.89 571.18 550.89 500.38 614.46 429.58 550.89 370.67 550.89 305.67 467.33 341 467.33 399.12 393.6 408.02 440.2 392.84 467.33 408.02 467.33 500.38 345.42 500.38 345.42"/><polygon class="cls-2" points="659.77 467.33 605.17 411.41 599.77 442.95 607.93 467.33 592.74 467.33 500.38 367.09 408.02 467.33 392.84 467.33 400.92 442.52 395.6 411.41 341 467.33 305.67 467.33 370.67 550.89 429.58 550.89 500.38 614.46 571.18 550.89 630.1 550.89 695.09 467.33 659.77 467.33"/><circle class="cls-5" cx="693.05" cy="473.29" r="31.47"/><path class="cls-6" d="M706,482.34c-.32.37-.58.69-.87,1-3.75,3.73-7.51,7.44-11.24,11.19-.66.67-1.05.7-1.72,0q-5.62-5.72-11.34-11.34c-.63-.63-.81-1.05-.06-1.72,1.11-1,2.18-2.08,3.19-3.19.66-.73,1.1-.6,1.73,0,2.1,2.15,4.3,4.2,6.36,6.38.84.89,1.3.77,2.08-.05,2-2.08,4.12-4,6.1-6.13.84-.9,1.36-.82,2.12,0,.91,1,1.94,2,2.91,2.95C705.47,481.73,705.69,482,706,482.34Z"/><path class="cls-6" d="M705.94,465c-.47.5-.85,1-1.29,1.36-1.14,1.05-2.06,3-3.39,3s-2.27-1.93-3.4-3c-1.31-1.23-2.64-2.46-3.85-3.8-.79-.87-1.26-.72-2,0-2.09,2.17-4.28,4.23-6.38,6.38-.64.66-1,.74-1.7,0a43.5,43.5,0,0,0-3.18-3.19c-.74-.67-.6-1.09,0-1.72q5.73-5.65,11.37-11.36c.56-.57.93-.74,1.59-.07,3.84,3.9,7.73,7.76,11.6,11.63C705.55,464.47,705.71,464.71,705.94,465Z"/><path class="cls-7" d="M680.83,473.61c-.28.33-.5.61-.75.86-1,1-2,1.89-2.9,2.95s-1.45.85-2.2-.07c-1.09-1.34-3.36-2.33-3.28-3.8.08-1.27,2.15-2.39,3.25-3.65.8-.91,1.39-1.09,2.25-.06s1.94,2,2.91,2.94C680.35,473,680.57,473.3,680.83,473.61Z"/><path class="cls-6" d="M693,468.91c.44.42.85.77,1.22,1.16,1.12,1.16,3,2.26,3.13,3.52s-2.06,2.26-3,3.53-1.74,1.26-2.73,0a26.34,26.34,0,0,0-2.79-2.8c-.57-.54-.55-.91,0-1.44,1.14-1.07,2.21-2.2,3.32-3.3C692.43,469.35,692.73,469.16,693,468.91Z"/><path class="cls-7" d="M714.6,473.66c-.56.59-1,1.12-1.53,1.64-3,3.26-3,3.26-6.1.16a9.32,9.32,0,0,0-.9-.88c-.92-.68-.76-1.18,0-2,4.13-4.19,4.18-4.21,7.95.33Z"/><circle class="cls-5" cx="308.62" cy="474.19" r="32.38"/><path class="cls-6" d="M322.65,465.78c-.27.32-.48.61-.73.85q-10.28,10.29-20.55,20.59c-.61.61-1,.67-1.59,0-1.36-1.46-2.77-2.88-4.24-4.24-.77-.71-.53-1.12.09-1.73q10.25-10.2,20.44-20.45c.65-.65,1.06-.74,1.73,0,1.32,1.42,2.73,2.75,4.09,4.13C322.14,465.17,322.36,465.45,322.65,465.78Z"/><path class="cls-6" d="M330.86,474c-.28.32-.5.6-.76.85Q319.9,485,309.7,495.26c-.73.74-1.18.75-1.88,0-1.32-1.42-2.7-2.79-4.11-4.11-.71-.66-.63-1.08,0-1.72Q314,479.25,324.15,469c.74-.74,1.18-.74,1.87,0,1.32,1.42,2.73,2.75,4.1,4.13C330.37,473.39,330.59,473.66,330.86,474Z"/><path class="cls-6" d="M300.3,471.77c-.32-.26-.6-.47-.85-.71-1.37-1.37-2.71-2.77-4.12-4.1-.67-.63-.76-1-.05-1.74q6.35-6.25,12.6-12.59c.65-.66,1.06-.75,1.74,0,1.36,1.47,2.79,2.87,4.23,4.25.54.52.65.87.06,1.45q-6.45,6.4-12.86,12.84C300.84,471.35,300.59,471.52,300.3,471.77Z"/><path class="cls-6" d="M298.11,474c-.28.31-.5.59-.75.84-1.37,1.37-2.76,2.71-4.09,4.11-.63.68-1.07.74-1.74,0-1.36-1.45-2.78-2.85-4.22-4.22-.66-.62-.55-1,.05-1.6,1.44-1.37,2.84-2.8,4.23-4.21.47-.48.83-.81,1.46-.15,1.5,1.57,3.06,3.08,4.6,4.62C297.8,473.57,297.93,473.77,298.11,474Z"/><circle class="cls-8" cx="628.3" cy="554.4" r="32.38"/><path class="cls-9" d="M610.46,552.1a1.89,1.89,0,0,1,.19-.3,4.46,4.46,0,0,0,1.2-4.84c-.73-2.79.79-5.11,3-6.87,4.36-3.45,9.38-4.37,14.78-3.72a23,23,0,0,1,8.61,2.44,82.09,82.09,0,0,1,9,9.06,6.37,6.37,0,0,1,.41,6,2.72,2.72,0,0,1-.64,2.38,6.94,6.94,0,0,1-2.56,2.49c-4.81,2.23-8.79,6.17-14.32,6.9-6.36.84-12.31,0-17.68-3.84-1.87-1.33-2.45-3.33-3.32-5.22A7.79,7.79,0,0,1,610.46,552.1Z"/><path class="cls-10" d="M610.46,552.1c-.32,1.44-.85,2.86-.43,4.37a13.92,13.92,0,0,0,1.67,7.24,3.93,3.93,0,0,0,1.81,2.54c6.16,4.06,12.89,4.9,20,3.68a22,22,0,0,0,10.24-4.55,4.81,4.81,0,0,0,2.2-3.5c.76-2,.34-4.14.67-6.19.35-.6.71-1.19,1.07-1.79a10.78,10.78,0,0,1-2.26,13c-8.3,8-26.66,7.68-34.69-.53A10.85,10.85,0,0,1,610.46,552.1Z"/><path class="cls-11" d="M646.61,555.69c1.17,2.12.64,4.32.28,6.51a17.34,17.34,0,0,1-8.42,5.92c-8.71,3.2-17.16,3.1-25.23-2a8.6,8.6,0,0,1-2.43-2.1c-1.15-2.43-1.95-4.9-.78-7.57a7.12,7.12,0,0,0,3.19,4.82c7,4.64,14.66,5.45,22,1.72C639.2,561,643.67,559.41,646.61,555.69Z"/><path class="cls-12" d="M629.56,541.66a8,8,0,0,1,3.08,1.42c2.52,1.64,2.76,4,.53,6a10.08,10.08,0,0,1-8.35,2.49c-2.82-.4-4.5.92-4.59,3.82-.05,1.32,0,2.65-.07,4,0,.54-.22,1.15-.92,1.1s-.77-.58-.78-1.08c0-2.44-.43-5,.92-7.21a1.55,1.55,0,0,0-.28-2.25c-4.43-3.23-2.27-6.38,1.67-8.14a8.94,8.94,0,0,1,1.37-.38c.35.69-.11,1.27-.27,1.88a1.84,1.84,0,0,0,.77,2.2,6,6,0,0,0,6.12-.08,1.79,1.79,0,0,0,.83-2.16A1.59,1.59,0,0,1,629.56,541.66Z"/><path class="cls-13" d="M613.72,548.15a5.65,5.65,0,0,1,2-6.7c5.21-4.19,11.1-4.26,17.24-2.87a14.23,14.23,0,0,1,6.29,2.93c2.24,1.93,2.87,4.22,1.83,6.68a11.25,11.25,0,0,1-7.58,4.4c-.67.12-1.33.19-1.76-.51a14.07,14.07,0,0,0,3.51-3.06,4.33,4.33,0,0,0-.28-6c-4.47-5-13.78-5.1-18.43-.29-1.92,2-1.78,4.17-.61,6.46C614.71,549.92,614.43,548.56,613.72,548.15Z"/><path class="cls-13" d="M625.63,556.08a28.07,28.07,0,0,0,9.24-1.15c4.31-1.43,7.58-3.88,8.55-8.62,3.17,1.82,4.13,5.28,2.18,7.62-2.46,2.88-5.83,3.87-9.38,4.31a22.26,22.26,0,0,1-8.89-.69C626.58,557.34,625.59,557.27,625.63,556.08Z"/><path class="cls-14" d="M625.63,556.08a21.29,21.29,0,0,0,18.23-1.22l1.74-.93c-.17,1.43-1.27,2.18-2.32,2.81-6.75,4.06-13.66,3.79-20.63.58-.57-.26-1-.63-.82-1.39s.85-.37,1.32-.29C624,555.77,624.8,555.93,625.63,556.08Z"/><path class="cls-15" d="M629.56,541.66c1.8,2.58,1.19,4.27-1.85,5.15a7,7,0,0,1-3.9,0c-3.3-.9-3.93-2.93-1.67-5.47A7.9,7.9,0,0,1,629.56,541.66Z"/><path class="cls-13" d="M611.92,557.19a3.71,3.71,0,0,1-.39-2.44c.15-1.46.6-2.93,2-3.56.86-.39,3.44,2.68,3.43,3.89,0,1.43,0,2.87-.06,4.3-1.32.93-2.32,0-3.35-.61A5.46,5.46,0,0,1,611.92,557.19Z"/><path class="cls-16" d="M631.76,552.08a18.56,18.56,0,0,0,9.34-3.89,5.07,5.07,0,0,1-2.07,2.86c-5,3.55-10.55,4.22-16.78,2.76,1.12-1.15,2.22-.5,3.17-.61s2.16-.07,3.22-.25A31.43,31.43,0,0,0,631.76,552.08Z"/><path class="cls-17" d="M629.62,561.15h5.48c-5.27,3-10.71,3.13-16.73,1.17a3.47,3.47,0,0,0,3.24-1.57,3.39,3.39,0,0,1,2.75-.22A18.66,18.66,0,0,0,629.62,561.15Z"/><path class="cls-18" d="M629.62,561.15a15.14,15.14,0,0,1-8-.4c0-.65.07-1.3.13-2.26A29.8,29.8,0,0,0,629.62,561.15Z"/><path class="cls-19" d="M611.92,557.19a29.07,29.07,0,0,0,5,2.19,4.07,4.07,0,0,0,.76,2.32A7.29,7.29,0,0,1,611.92,557.19Z"/><path class="cls-20" d="M613.72,548.15l2.23,1c.56.53,1.11,1.06,1.68,1.57.29.26.44.48.19.89s-.59.3-.87.1C615.61,550.77,614.16,549.91,613.72,548.15Z"/><path class="cls-21" d="M610.81,564c11.63,7.75,25.46,7.05,36.08-1.84-.77,2.45-2.64,4-4.66,5.28-5.33,3.43-11.29,4.24-17.46,3.61a21.11,21.11,0,0,1-12-4.74A5,5,0,0,1,610.81,564Z"/><path class="cls-22" d="M627.66,544.1a2.16,2.16,0,0,1-2,1.39c-.8-.06-1.82-.52-1.72-1.47s1.13-1.18,2-1.21A1.85,1.85,0,0,1,627.66,544.1Z"/><circle class="cls-23" cx="372.47" cy="554.4" r="32.38"/><path class="cls-6" d="M382.32,554.84c3.43,2.93,4,4.83,2.71,8.43s-3.58,5-7.64,5a8.23,8.23,0,0,1-2.54-.17c-1.68-.58-2.17.22-2.37,1.66-.08.66-.37,1.3-.44,2-.15,1.57-.86,1.71-2.32,1.37s-1.67-1-1.25-2.24c.26-.75.35-1.56.62-2.3.44-1.19.12-1.72-1.18-1.95-.87-.16-1.22-.05-1.38.82-.21,1.14-.58,2.25-.77,3.39-.23,1.37-1.05,1-1.88.75s-2.16,0-1.69-1.66a30,30,0,0,1,.78-3c.54-1.32-.05-1.7-1.2-1.93-1.43-.29-2.83-.73-4.26-1-.8-.17-1.06-.48-.67-1.24a9.5,9.5,0,0,0,.64-1.51c.37-1.21,1-1.68,2.29-1.13,1.5.63,2.34.1,2.73-1.57,1-4.39,2.16-8.75,3.25-13.13.56-2.26.26-2.7-2-3.38-.57-.17-1.6,0-1.55-.89a10.28,10.28,0,0,1,.76-3c.15-.41.65-.1,1,0,1.36.34,2.74.61,4.07,1s2.08.27,2.23-1.27a12.29,12.29,0,0,1,.42-1.77c.52-2.09,1.59-2.52,3.48-1.46.61.34.45.76.33,1.24-.23.94-.41,1.91-.71,2.83s-.4,1.65.95,2,1.48-.31,1.67-1.23c.14-.66.37-1.3.45-2,.2-1.58.79-2.1,2.51-1.61,1.41.41,1.54,1,1.15,2.15s-1,2.46-.76,3.53,2,1.15,3,1.77c2.2,1.37,3.82,3,3.66,5.86C386.18,551.83,385.07,553.85,382.32,554.84Z"/><path class="cls-24" d="M374.21,563.27h-.37a19,19,0,0,1-5.66-1.22c.14-2.32,1-4.48,1.51-6.72.15-.71.69-.47,1.17-.38a18.27,18.27,0,0,1,5,1.63c2.1,1.08,2.93,2.49,2.49,4.15S376.54,563.26,374.21,563.27Z"/><path class="cls-25" d="M375.42,552.08c-4.51-.15-4.8-.53-3.74-4.85.74-3,.74-3,3.78-2.05a14,14,0,0,1,1.51.61c2,1,2.86,2.3,2.46,3.93S377.63,552.16,375.42,552.08Z"/><path class="cls-26" d="M500.29,425c9.69,10.28,19.38,20.57,30.11,29.81,1.85,1.59,3.56,3.34,5.26,5.09,10.49,10.87,21.78,20.95,31.72,32.36C557.64,504.07,546,514,535.49,525.06c-3,3.18-6,6.43-9.35,9.29-8.5,7.34-16.3,15.4-24.18,23.37-1.63,1.65-2.61,1.71-4.29,0q-31.35-31.5-62.86-62.83c-2.83-2.8-.85-4.08.89-5.82q30-30,60.07-60.08c1.26-1.26,2.37-2.66,3.54-4Z"/><path class="cls-27" d="M525.52,520.71c-3,3-7.1,2.14-10.7,2.83-8,1.53-16.16,2.62-24.25,3.89-1.28-1.63-1.4-3.55-1.34-5.51a14.15,14.15,0,0,1,.37-3.25c1.08-3.11.15-6.41.93-9.54.9-2.56.55-5.22.61-7.84,0-2.08,0-4.15,0-6.23a13.41,13.41,0,0,1,.2-2.19,41.14,41.14,0,0,0,1.34-9.37,4.16,4.16,0,0,1,.48-1.27c2-1.83,4-3.6,6.83-3.88a3,3,0,0,1,1.64,1.07,21.48,21.48,0,0,1,1.32,2.21c.78,1.44,1.76,2.76,2.51,4.21a7.89,7.89,0,0,0,1.16,1.85c.58.42,1.39.41,1.88,1a25.25,25.25,0,0,1,1.22,2.64l1.08,2.22c.21.38.39.77.57,1.16,4.24,7.48,8.45,15,12.89,22.33A13.16,13.16,0,0,1,525.52,520.71Z"/><path d="M525.52,520.71c-5.94-8.32-10.58-17.4-15.45-26.34,4-6.29,9.33-11.5,14.13-17.14.8-1,1.83-1.9,3.35-1.41.79,1.18,1.53,2.4,2.37,3.54,5.62,7.59,8.14,15.24,2.74,24.36C529.55,509,527.85,515,525.52,520.71Z"/><path class="cls-28" d="M500.28,478.75l-6.78,3.94a6.9,6.9,0,0,1-2.7-1.26,18.42,18.42,0,0,1-2.89-2.31,17.66,17.66,0,0,0-3.42-2.74,21,21,0,0,1-2.42-2.09c-1.28-1.66-3.6-2.3-4.38-4.45.09-2.35,2.27-2,3.58-2.55,7.39-2.78,15-5.11,22.24-8.14,4.27-1.77,7.89-1.9,11.63.93,2,1.52,4.68,2.07,6.41,4.08,0,.15,0,.36-.16.45-4.44,3.72-8.43,7.93-12.79,11.74a2.79,2.79,0,0,1-1.28-.15C504.09,474.6,502.71,478.12,500.28,478.75Z"/><path d="M477.69,469.84c2,.93,3.94,1.89,5.05,3.94,1.38,5.12-.86,9.88-1.54,14.79-1,7.38-2.42,14.71-3.88,22-.31,1.56-.14,3.8-2.88,3.49-3.27-2.63-6.5-5.32-9.84-7.86-1.47-1.13-1.43-2.18-.76-3.74C468.5,491.62,473.08,480.73,477.69,469.84Z"/><path class="cls-29" d="M484.72,475.66a5.49,5.49,0,0,1,3.87,3.07,14.51,14.51,0,0,1,0,5.76c-1.84,9.82-3.34,19.7-5.31,29.5-.42,2-.15,4.81-3.5,4.81-1.07-.18-1.53-1-2-1.84a6,6,0,0,1-.72-4.18c1.85-11.11,4-22.17,5.9-33.27C483.2,478.1,483.39,476.6,484.72,475.66Z"/><path class="cls-30" d="M479.75,518.8c3.63-4.23,2.72-9.69,3.84-14.57,1.94-8.44,2.6-17.14,5-25.5l2.83,2c2.05,4.08-.13,8-.78,11.84-1.46,8.64-2.76,17.32-4.66,25.88-.32,1.45,0,3.49-2.5,3.35Z"/><path class="cls-31" d="M484.72,475.66q-3.24,18.73-6.48,37.47c-.22,1.27-.31,2.55-.46,3.83a7.16,7.16,0,0,1-3.34-2.88c2.94-4.14,2.34-9.16,3.32-13.77,1.86-8.8,3.34-17.68,5-26.53Z"/><path class="cls-32" d="M508.12,475.82c4.09-4.33,7.8-9.1,13.43-11.66l1,1.9c-5.71,6.89-11.71,13.53-17.34,20.5-1.3-1.43-2.67-2.82-3-4.87C503.91,479.46,506.13,477.76,508.12,475.82Z"/><path class="cls-33" d="M483.48,521.83C485.7,516.6,486,511,487,505.48c1.51-8.24,3-16.48,4.46-24.72a3.11,3.11,0,0,1,2.08,1.93v0c-.84,3.31-.64,6.77-1.58,10.06-.65,8.71-2.49,17.23-4,25.81-.35,2-.35,4.38-3.42,4.24Z"/><path class="cls-34" d="M509.08,491.43c-1.15-.7-.95-1.85-1-2.92a2,2,0,0,1,.4-2.25c3.85-5,8-9.84,12.31-14.48,1-1,2-2.24,3.73-1.8l1.54,2.73C520.83,479.33,516.23,486.54,509.08,491.43Z"/><path class="cls-35" d="M524.54,470c-6.46,5.3-11.06,12.26-16.44,18.53-.65.07-1.3,1.08-2,0-.89-1.89-.07-3.54,1.09-4.82,4.21-4.65,8.27-9.43,12.26-14.27,1-1.16,2.07-2.73,4-1.41Z"/><path class="cls-36" d="M523.53,468c-4.41,1.08-5.82,5.41-8.31,8.33-3.25,3.81-8,6.72-9.07,12.17a2,2,0,0,1-1-1.95c-.27-4.49,3.84-6.24,6.12-8.84,3.54-4,5.81-9.43,11.22-11.66Z"/><path class="cls-37" d="M492.37,494.44v6.79c-1.09,2.52.35,5.31-.84,7.82-.46,3.26.82,6.68-1,9.8a.92.92,0,0,1-.43-.79c0-.35.06-.24-.12.22-.91,2.37,1.05,5.63-2.25,7.26l-2.18-1.84c2.75-4.69,2.12-10.15,3.39-15.18a65.77,65.77,0,0,0,2.13-13.13C491.12,494.65,491.61,494.31,492.37,494.44Z"/><path class="cls-38" d="M527.55,475.82c-5.11,4-8.65,9.48-12.86,14.32a51.6,51.6,0,0,1-4.62,4.23c0-.33,0-.66,0-1a1.53,1.53,0,0,1,0-2.18c5-5.35,9.47-11.23,14.47-16.62a1.81,1.81,0,0,1,2.1-.73C527.16,474.41,527.85,474.88,527.55,475.82Z"/><path class="cls-39" d="M492.37,494.44c-1.59,8.42-3.24,16.83-4.72,25.28-.29,1.65-.29,3.21-2.08,4l-1.05-.94c3.56-2.41,2.15-6.43,3-9.66,1.69-6.81,2.72-13.78,4-20.69.29-.47.59-.46.88,0Z"/><path class="cls-40" d="M526.64,473.86a112.92,112.92,0,0,0-16.58,19.53,2,2,0,0,1-1-2c5.83-6.09,10.28-13.43,17-18.72Z"/><path class="cls-41" d="M487.75,525.54c1.37-3.08,1.56-6.41,2.05-9.74,1.23.84.46,2.07.75,3.05-.06,1-.12,1.94-.19,2.91-.95,1.63.43,3.69-1,5.24Z"/><path class="cls-37" d="M489.38,527c.44-1.73-.47-3.71,1-5.24l.21,5.67A.83.83,0,0,1,489.38,527Z"/><path class="cls-42" d="M500.28,478.75c.78-3.4,4.19-3.68,6.51-5,1-.59.52,1.25.32,2.05-.36,1.81-1.84,2.87-2.87,4.2s-2.12,1-3-.25Z"/><path class="cls-43" d="M501.2,479.74c3.82,1.46,3.23-3.71,5.91-3.95l1,0a7.85,7.85,0,0,1-5.91,5.87C501.88,481,501.54,480.39,501.2,479.74Z"/><path class="cls-44" d="M492.38,492.42h-.88c.35-3.32.45-6.69,2-9.76C493.75,486,494.1,489.32,492.38,492.42Z"/><path class="cls-39" d="M491.52,509.05c.33-2.6-.9-5.37.84-7.82C492.17,503.85,493.28,506.61,491.52,509.05Z"/></svg>