<svg id="svg" version="1.1" xmlns="http://www.w3.org/2000/svg" xmlns:xlink="http://www.w3.org/1999/xlink" width="400" height="88.23920265780731" viewBox="0, 0, 400,88.23920265780731"><g id="svgg"><path id="path0" d="M177.250 16.167 C 177.193 16.258,176.851 16.333,176.490 16.333 C 176.129 16.333,175.833 16.399,175.833 16.479 C 175.833 16.559,175.533 16.672,175.167 16.731 C 174.800 16.789,174.500 16.903,174.500 16.984 C 174.500 17.065,174.318 17.176,174.097 17.232 C 173.122 17.476,170.833 20.198,170.833 21.113 C 170.833 21.315,170.758 21.527,170.667 21.583 C 170.463 21.709,170.443 24.611,170.645 24.736 C 170.724 24.786,170.838 25.128,170.897 25.496 C 170.956 25.865,171.078 26.167,171.169 26.167 C 171.259 26.167,171.333 26.274,171.333 26.405 C 171.333 26.536,171.442 26.752,171.575 26.885 C 171.795 27.104,171.134 28.000,170.751 28.000 C 170.617 28.000,170.000 28.653,170.000 28.795 C 170.000 28.866,169.812 29.110,169.582 29.337 C 169.351 29.564,169.070 29.849,168.957 29.970 C 168.843 30.091,168.619 30.314,168.458 30.465 C 168.298 30.617,168.167 30.809,168.167 30.892 C 168.167 30.976,168.027 31.166,167.857 31.314 C 167.687 31.462,167.494 31.752,167.429 31.958 C 167.364 32.165,167.244 32.333,167.163 32.333 C 167.082 32.333,166.885 32.615,166.726 32.958 C 166.566 33.302,166.269 33.808,166.064 34.083 C 165.860 34.358,165.641 34.790,165.578 35.042 C 165.515 35.294,165.403 35.500,165.329 35.500 C 165.254 35.500,165.144 35.725,165.083 36.000 C 165.023 36.275,164.904 36.500,164.820 36.500 C 164.736 36.500,164.667 36.688,164.667 36.917 C 164.667 37.146,164.598 37.333,164.515 37.333 C 164.431 37.333,164.312 37.633,164.250 37.999 C 164.188 38.365,164.076 38.703,164.001 38.749 C 163.926 38.796,163.813 39.209,163.750 39.667 C 163.687 40.125,163.567 40.542,163.484 40.593 C 163.401 40.644,163.333 40.944,163.333 41.260 C 163.333 41.575,163.271 41.833,163.195 41.833 C 162.850 41.833,162.781 49.844,163.125 49.958 C 163.268 50.006,163.333 50.442,163.333 51.357 C 163.333 52.105,163.399 52.646,163.484 52.593 C 163.566 52.542,163.686 52.950,163.750 53.500 C 163.814 54.050,163.925 54.463,163.997 54.418 C 164.146 54.327,164.328 54.894,164.331 55.458 C 164.332 55.665,164.408 55.833,164.500 55.833 C 164.592 55.833,164.667 55.989,164.667 56.179 C 164.667 56.368,164.779 56.636,164.917 56.774 C 165.054 56.911,165.167 57.168,165.167 57.345 C 165.167 57.522,165.242 57.667,165.333 57.667 C 165.425 57.667,165.500 57.812,165.500 57.990 C 165.500 58.168,165.576 58.361,165.669 58.418 C 165.763 58.476,165.796 58.593,165.743 58.678 C 165.690 58.764,165.718 58.833,165.804 58.833 C 165.890 58.833,166.005 58.965,166.059 59.125 C 166.178 59.481,166.533 60.046,166.723 60.186 C 166.892 60.309,167.288 60.972,167.433 61.375 C 167.491 61.535,167.680 61.667,167.853 61.667 C 168.068 61.667,168.167 61.786,168.167 62.047 C 168.167 62.289,168.589 62.872,169.333 63.655 C 169.975 64.330,170.500 64.947,170.500 65.025 C 170.500 65.103,170.578 65.167,170.673 65.167 C 170.768 65.167,171.237 65.542,171.715 66.000 C 172.192 66.458,172.636 66.833,172.701 66.833 C 172.765 66.833,173.024 67.040,173.276 67.292 C 173.706 67.723,174.086 67.992,174.667 68.276 C 174.804 68.343,175.016 68.496,175.137 68.616 C 175.258 68.735,175.464 68.833,175.595 68.833 C 175.726 68.833,175.833 68.908,175.833 69.000 C 175.833 69.092,175.946 69.167,176.083 69.167 C 176.221 69.167,176.333 69.234,176.333 69.315 C 176.333 69.397,176.521 69.511,176.750 69.568 C 176.979 69.626,177.167 69.741,177.167 69.823 C 177.167 69.968,178.119 70.264,178.375 70.198 C 178.444 70.181,178.500 70.242,178.500 70.333 C 178.500 70.425,178.612 70.500,178.750 70.500 C 178.887 70.500,179.000 70.574,179.000 70.665 C 179.000 70.755,179.299 70.877,179.664 70.936 C 180.029 70.994,180.290 71.102,180.244 71.177 C 180.198 71.251,180.499 71.363,180.913 71.425 C 181.328 71.487,181.667 71.604,181.667 71.686 C 181.667 71.767,181.850 71.833,182.073 71.833 C 182.297 71.833,182.525 71.905,182.579 71.992 C 182.633 72.080,183.125 72.202,183.672 72.264 C 184.219 72.326,184.667 72.435,184.667 72.507 C 184.667 72.580,185.492 72.692,186.500 72.757 C 187.508 72.823,188.333 72.942,188.333 73.021 C 188.333 73.101,189.571 73.167,191.083 73.167 C 192.596 73.167,193.833 73.103,193.833 73.025 C 193.833 72.947,194.599 72.833,195.534 72.772 C 196.469 72.711,197.275 72.597,197.325 72.520 C 197.376 72.442,197.867 72.323,198.417 72.256 C 198.967 72.188,199.458 72.066,199.509 71.984 C 199.560 71.902,199.799 71.819,200.039 71.799 C 200.279 71.779,200.439 71.704,200.395 71.631 C 200.350 71.559,200.449 71.494,200.615 71.488 C 201.203 71.463,201.737 71.323,201.833 71.167 C 201.887 71.080,202.078 70.985,202.257 70.956 C 202.702 70.885,203.667 70.444,203.667 70.311 C 203.667 70.252,203.929 70.155,204.250 70.094 C 204.571 70.034,204.833 69.919,204.833 69.839 C 204.833 69.759,205.058 69.644,205.333 69.583 C 205.608 69.523,205.833 69.404,205.833 69.320 C 205.833 69.236,205.958 69.167,206.111 69.167 C 206.264 69.167,206.342 69.120,206.285 69.062 C 206.227 69.005,206.570 68.761,207.047 68.521 C 207.523 68.280,208.072 67.915,208.267 67.708 C 208.462 67.502,208.679 67.333,208.750 67.333 C 208.821 67.333,209.052 67.146,209.265 66.917 C 209.477 66.688,209.716 66.500,209.797 66.500 C 210.014 66.500,213.500 63.033,213.500 62.817 C 213.500 62.715,213.688 62.484,213.917 62.304 C 214.146 62.123,214.333 61.869,214.333 61.738 C 214.333 61.607,214.407 61.500,214.497 61.500 C 214.587 61.500,214.707 61.313,214.765 61.083 C 214.822 60.854,214.931 60.667,215.007 60.667 C 215.082 60.667,215.196 60.504,215.259 60.306 C 215.322 60.107,215.552 59.766,215.770 59.548 C 215.988 59.330,216.167 59.005,216.167 58.826 C 216.167 58.647,216.236 58.500,216.320 58.500 C 216.404 58.500,216.523 58.275,216.583 58.000 C 216.644 57.725,216.762 57.500,216.847 57.500 C 216.931 57.500,217.000 57.387,217.000 57.250 C 217.000 57.112,217.074 57.000,217.165 57.000 C 217.255 57.000,217.377 56.700,217.436 56.333 C 217.495 55.967,217.603 55.667,217.678 55.667 C 217.752 55.667,217.864 55.328,217.926 54.915 C 217.988 54.501,218.105 54.122,218.186 54.071 C 218.267 54.021,218.333 53.797,218.333 53.573 C 218.333 53.350,218.402 53.167,218.487 53.167 C 218.571 53.167,218.694 52.660,218.759 52.042 C 218.824 51.423,218.959 50.865,219.057 50.802 C 219.304 50.644,219.307 42.526,219.060 42.365 C 218.963 42.302,218.832 41.801,218.769 41.252 C 218.706 40.703,218.582 40.182,218.494 40.094 C 218.406 40.006,218.333 39.765,218.333 39.560 C 218.333 39.354,218.267 39.145,218.186 39.095 C 218.105 39.045,217.987 38.664,217.925 38.249 C 217.863 37.833,217.751 37.531,217.677 37.577 C 217.602 37.623,217.494 37.362,217.436 36.997 C 217.377 36.632,217.273 36.333,217.204 36.333 C 217.072 36.333,216.500 35.115,216.500 34.832 C 216.500 34.741,216.433 34.667,216.351 34.667 C 216.270 34.667,216.152 34.465,216.090 34.218 C 216.028 33.972,215.843 33.653,215.679 33.510 C 215.515 33.367,215.324 33.068,215.253 32.846 C 215.183 32.623,214.947 32.249,214.729 32.014 C 214.512 31.779,214.333 31.503,214.333 31.400 C 214.333 31.297,214.150 31.076,213.927 30.908 C 213.703 30.740,213.476 30.426,213.422 30.211 C 213.368 29.996,213.256 29.861,213.174 29.912 C 213.091 29.963,212.977 29.858,212.920 29.678 C 212.863 29.498,212.670 29.304,212.491 29.247 C 212.313 29.191,212.167 29.077,212.167 28.995 C 212.167 28.913,212.003 28.694,211.803 28.508 L 211.440 28.169 211.803 27.782 C 212.003 27.569,212.167 27.306,212.167 27.198 C 212.167 27.089,212.230 27.000,212.307 27.000 C 212.384 27.000,212.591 26.719,212.765 26.375 C 212.940 26.031,213.158 25.696,213.250 25.631 C 213.544 25.421,213.463 21.175,213.161 20.945 C 213.021 20.838,212.802 20.431,212.676 20.042 C 212.550 19.652,212.346 19.333,212.223 19.333 C 212.100 19.333,212.000 19.217,212.000 19.075 C 212.000 18.852,211.717 18.538,210.882 17.836 C 210.771 17.743,210.603 17.667,210.507 17.667 C 210.411 17.667,210.333 17.592,210.333 17.500 C 210.333 17.408,210.146 17.333,209.917 17.333 C 209.657 17.333,209.500 17.239,209.500 17.083 C 209.500 16.918,209.335 16.833,209.012 16.833 C 208.743 16.833,208.411 16.721,208.274 16.583 C 208.112 16.422,207.700 16.333,207.105 16.333 C 206.600 16.333,206.140 16.258,206.083 16.167 C 205.949 15.949,203.884 15.949,203.750 16.167 C 203.693 16.258,203.389 16.333,203.073 16.333 C 202.758 16.333,202.500 16.400,202.500 16.481 C 202.500 16.563,202.237 16.679,201.917 16.739 C 201.596 16.799,201.333 16.912,201.333 16.989 C 201.333 17.067,201.132 17.181,200.885 17.243 C 200.638 17.305,200.319 17.490,200.177 17.654 C 200.034 17.818,199.752 18.004,199.550 18.068 C 199.349 18.132,199.137 18.330,199.081 18.509 C 199.024 18.687,198.908 18.833,198.822 18.833 C 198.737 18.833,198.667 18.946,198.667 19.083 C 198.667 19.221,198.600 19.333,198.519 19.333 C 198.335 19.333,197.812 20.117,197.754 20.480 C 197.728 20.641,197.584 20.730,197.397 20.700 C 197.225 20.672,196.840 20.641,196.542 20.631 C 196.244 20.620,196.000 20.549,196.000 20.472 C 196.000 20.396,195.512 20.333,194.917 20.333 C 194.306 20.333,193.833 20.261,193.833 20.167 C 193.833 19.907,188.624 19.947,188.342 20.208 C 188.160 20.378,188.143 20.370,188.250 20.167 C 188.357 19.964,188.340 19.956,188.158 20.125 C 187.623 20.621,185.833 20.273,185.833 19.673 C 185.833 19.572,185.724 19.447,185.590 19.396 C 185.456 19.345,185.296 19.144,185.234 18.951 C 185.108 18.552,184.765 18.167,184.538 18.167 C 184.454 18.167,184.167 17.979,183.901 17.750 C 183.465 17.375,183.160 17.255,182.792 17.314 C 182.723 17.324,182.667 17.221,182.667 17.083 C 182.667 16.918,182.501 16.833,182.179 16.833 C 181.910 16.833,181.578 16.721,181.440 16.583 C 181.303 16.446,180.998 16.333,180.762 16.333 C 180.526 16.333,180.333 16.258,180.333 16.167 C 180.333 16.068,179.726 16.000,178.843 16.000 C 178.024 16.000,177.307 16.075,177.250 16.167 M178.132 26.558 C 178.564 26.956,179.085 27.423,179.292 27.595 C 179.498 27.767,179.667 27.980,179.667 28.068 C 179.667 28.156,179.814 28.385,179.994 28.577 C 180.204 28.800,180.363 29.284,180.436 29.921 C 180.499 30.469,180.624 30.965,180.715 31.024 C 180.805 31.083,180.916 31.516,180.961 31.986 C 181.006 32.456,181.108 32.881,181.188 32.930 C 181.564 33.162,181.349 36.649,180.917 37.333 C 180.688 37.696,180.500 38.078,180.500 38.181 C 180.500 38.454,179.518 40.469,179.328 40.587 C 179.239 40.641,179.167 40.839,179.167 41.025 C 179.167 41.224,179.029 41.401,178.833 41.452 C 178.650 41.500,178.500 41.610,178.500 41.698 C 178.500 41.901,178.072 42.333,177.871 42.333 C 177.787 42.333,177.590 42.476,177.432 42.650 C 176.991 43.137,174.500 43.512,174.071 43.156 C 173.744 42.885,174.038 42.674,174.750 42.667 C 175.678 42.657,175.832 42.340,174.917 42.324 C 174.396 42.315,173.895 42.188,173.583 41.986 C 173.308 41.808,172.955 41.618,172.797 41.563 C 172.640 41.509,172.467 41.325,172.413 41.156 C 172.360 40.987,172.109 40.674,171.856 40.461 C 169.689 38.638,169.769 32.491,171.990 30.130 C 172.717 29.357,173.000 29.005,173.000 28.874 C 173.000 28.805,173.244 28.645,173.542 28.520 C 173.840 28.394,174.301 28.189,174.567 28.063 C 175.100 27.810,177.333 27.745,177.333 27.982 C 177.333 28.064,177.540 28.181,177.792 28.243 C 178.044 28.304,178.606 28.704,179.042 29.130 C 179.836 29.907,180.104 29.825,179.641 28.947 C 179.426 28.540,177.707 26.833,177.511 26.833 C 177.272 26.833,176.801 26.187,176.910 26.011 C 177.097 25.708,177.321 25.808,178.132 26.558 M206.137 26.204 C 206.107 26.408,205.906 26.663,205.690 26.771 C 205.141 27.043,203.692 28.486,203.389 29.061 C 202.952 29.892,203.386 29.911,204.140 29.093 C 204.522 28.678,205.023 28.292,205.252 28.235 C 205.482 28.177,205.711 28.063,205.761 27.982 C 206.117 27.407,208.734 27.974,209.776 28.852 C 210.065 29.096,210.365 29.322,210.442 29.356 C 210.643 29.442,211.333 30.453,211.333 30.660 C 211.333 30.755,211.402 30.833,211.485 30.833 C 211.695 30.833,212.500 32.486,212.500 32.916 C 212.500 33.109,212.580 33.347,212.677 33.444 C 212.991 33.758,212.695 38.235,212.343 38.500 C 212.197 38.610,211.667 39.756,211.667 39.961 C 211.667 40.808,209.000 42.332,207.510 42.336 C 206.760 42.338,206.495 42.388,206.665 42.496 C 207.051 42.739,206.622 43.067,206.091 42.934 C 205.571 42.803,204.333 41.721,204.333 41.397 C 204.333 41.270,204.258 41.167,204.167 41.167 C 204.075 41.167,204.000 41.063,204.000 40.937 C 204.000 40.811,203.880 40.608,203.733 40.486 C 203.586 40.364,203.398 40.111,203.316 39.924 C 203.234 39.736,203.102 39.471,203.021 39.333 C 202.610 38.631,202.167 37.602,202.167 37.351 C 202.167 37.195,202.087 36.987,201.990 36.890 C 201.674 36.574,201.994 30.966,202.349 30.592 C 202.432 30.505,202.500 30.235,202.500 29.992 C 202.500 29.150,204.624 26.333,205.258 26.333 C 205.369 26.333,205.553 26.221,205.667 26.083 C 205.969 25.719,206.198 25.778,206.137 26.204 M74.333 30.856 C 74.333 30.935,73.790 31.004,73.125 31.010 C 72.460 31.015,71.579 31.087,71.167 31.169 C 70.754 31.251,69.985 31.404,69.458 31.509 C 68.931 31.614,68.500 31.751,68.500 31.814 C 68.500 31.876,68.298 31.944,68.051 31.964 C 67.804 31.985,67.560 32.067,67.509 32.147 C 67.458 32.226,67.173 32.344,66.875 32.409 C 66.577 32.474,66.333 32.596,66.333 32.680 C 66.333 32.764,66.231 32.833,66.106 32.833 C 65.981 32.833,65.691 32.981,65.461 33.161 C 65.232 33.342,64.997 33.442,64.939 33.383 C 64.881 33.325,64.833 33.360,64.833 33.461 C 64.833 33.562,64.668 33.697,64.466 33.761 C 64.022 33.902,63.644 34.255,63.786 34.397 C 63.842 34.454,63.730 34.500,63.536 34.500 C 63.316 34.500,62.671 35.009,61.836 35.841 C 60.532 37.139,60.303 37.564,61.004 37.381 C 61.257 37.315,61.296 37.239,61.162 37.078 C 61.034 36.924,61.040 36.828,61.184 36.739 C 61.311 36.661,61.341 36.686,61.266 36.808 C 61.201 36.913,61.226 37.000,61.323 37.000 C 61.421 37.000,61.500 36.900,61.500 36.778 C 61.500 36.656,61.687 36.456,61.916 36.333 C 62.145 36.211,62.299 36.077,62.258 36.035 C 62.187 35.965,62.573 35.500,62.701 35.500 C 62.733 35.500,62.783 41.137,62.812 48.027 C 62.841 54.917,62.907 60.673,62.958 60.819 C 63.010 60.964,62.728 60.746,62.333 60.333 C 61.938 59.921,61.678 59.696,61.756 59.833 C 61.878 60.048,61.858 60.051,61.617 59.856 C 61.463 59.731,61.373 59.570,61.418 59.499 C 61.462 59.427,61.381 59.323,61.238 59.269 C 61.096 59.214,61.022 59.099,61.075 59.013 C 61.129 58.927,61.084 58.802,60.977 58.736 C 60.855 58.660,60.826 58.687,60.901 58.808 C 61.109 59.144,60.802 59.015,60.423 58.606 C 60.222 58.389,60.074 58.094,60.096 57.951 C 60.122 57.771,60.048 57.722,59.859 57.793 C 59.631 57.878,59.619 57.852,59.788 57.644 C 60.031 57.344,59.761 56.974,59.400 57.113 C 59.138 57.213,59.534 58.146,59.939 58.383 C 60.064 58.457,60.167 58.587,60.167 58.673 C 60.167 58.926,60.714 59.491,60.867 59.396 C 60.945 59.348,60.988 59.378,60.962 59.462 C 60.900 59.672,62.750 61.451,63.169 61.584 C 63.353 61.643,63.462 61.760,63.409 61.845 C 63.357 61.930,63.443 62.000,63.601 62.000 C 63.759 62.000,63.843 62.046,63.787 62.102 C 63.731 62.157,64.038 62.390,64.468 62.619 C 64.898 62.847,65.302 63.118,65.366 63.221 C 65.430 63.323,65.530 63.359,65.588 63.301 C 65.647 63.242,65.838 63.338,66.014 63.514 C 66.190 63.690,66.446 63.833,66.583 63.833 C 66.721 63.833,66.833 63.908,66.833 64.000 C 66.833 64.092,67.002 64.167,67.208 64.168 C 67.415 64.168,67.798 64.281,68.061 64.418 C 68.323 64.555,68.665 64.667,68.819 64.667 C 68.974 64.667,69.181 64.748,69.281 64.847 C 69.380 64.947,69.939 65.069,70.522 65.120 C 71.106 65.170,71.659 65.270,71.752 65.343 C 72.010 65.545,77.789 65.539,77.914 65.337 C 77.972 65.243,78.259 65.167,78.552 65.167 C 79.119 65.168,80.713 64.667,80.806 64.458 C 80.836 64.390,80.986 64.333,81.139 64.332 C 81.292 64.332,81.631 64.219,81.894 64.082 C 82.157 63.945,82.478 63.833,82.608 63.833 C 82.738 63.833,82.887 63.721,82.940 63.583 C 82.992 63.446,83.182 63.333,83.361 63.333 C 83.540 63.333,83.640 63.258,83.583 63.167 C 83.527 63.075,83.560 62.991,83.657 62.979 C 83.754 62.968,83.895 62.949,83.970 62.938 C 84.046 62.926,84.238 62.785,84.399 62.625 C 84.559 62.465,84.754 62.333,84.831 62.333 C 85.045 62.333,86.822 60.466,86.929 60.129 C 86.980 59.966,87.086 59.833,87.165 59.833 C 87.243 59.833,87.356 59.608,87.417 59.333 C 87.477 59.058,87.596 58.833,87.680 58.833 C 87.764 58.833,87.833 58.721,87.833 58.583 C 87.833 58.446,87.906 58.333,87.994 58.333 C 88.083 58.333,88.205 57.958,88.266 57.500 C 88.327 57.042,88.442 56.667,88.521 56.667 C 88.601 56.667,88.667 55.542,88.667 54.167 C 88.667 52.792,88.600 51.667,88.519 51.667 C 88.438 51.667,88.321 51.329,88.259 50.917 C 88.197 50.504,88.076 50.167,87.990 50.167 C 87.904 50.167,87.833 49.979,87.833 49.750 C 87.833 49.521,87.768 49.333,87.688 49.333 C 87.607 49.333,87.496 49.103,87.439 48.822 C 87.383 48.541,87.269 48.353,87.186 48.404 C 87.103 48.456,86.987 48.304,86.928 48.068 C 86.868 47.831,86.635 47.454,86.410 47.228 C 86.184 47.003,85.998 46.728,85.995 46.617 C 85.976 45.890,85.450 45.826,79.799 45.873 L 74.417 45.917 74.372 49.844 L 74.327 53.771 75.955 53.810 C 77.694 53.851,78.178 53.935,78.372 54.231 C 78.598 54.573,78.504 55.176,78.208 55.285 C 78.048 55.344,77.870 55.461,77.814 55.545 C 77.679 55.746,74.504 55.711,74.257 55.506 C 74.152 55.419,73.752 55.298,73.367 55.236 C 72.982 55.174,72.667 55.059,72.667 54.979 C 72.667 54.899,72.554 54.833,72.417 54.833 C 72.279 54.833,72.167 54.775,72.167 54.703 C 72.167 54.632,71.960 54.479,71.708 54.363 C 70.804 53.949,70.567 53.778,70.162 53.243 C 69.935 52.944,69.694 52.734,69.625 52.776 C 69.556 52.818,69.500 52.699,69.500 52.510 C 69.500 52.321,69.434 52.167,69.353 52.167 C 69.220 52.167,69.073 51.822,69.041 51.435 C 69.034 51.354,68.957 51.241,68.870 51.185 C 68.226 50.772,68.126 47.290,68.720 45.977 C 68.859 45.669,69.022 45.248,69.081 45.042 C 69.141 44.835,69.259 44.667,69.345 44.667 C 69.430 44.667,69.500 44.596,69.500 44.510 C 69.500 44.265,70.926 42.879,71.300 42.760 C 71.485 42.702,71.680 42.540,71.733 42.400 C 71.787 42.260,71.907 42.192,71.999 42.249 C 72.091 42.306,72.167 42.282,72.167 42.195 C 72.167 42.107,72.372 41.985,72.623 41.922 C 72.874 41.858,73.126 41.733,73.182 41.642 C 73.237 41.552,73.857 41.435,74.558 41.382 C 75.260 41.329,75.833 41.221,75.833 41.143 C 75.833 40.957,77.453 40.956,77.568 41.142 C 77.616 41.220,78.314 41.334,79.119 41.395 C 79.925 41.457,80.608 41.581,80.639 41.670 C 80.669 41.760,80.913 41.833,81.181 41.833 L 81.667 41.833 81.667 36.772 L 81.667 31.710 81.042 31.607 C 80.698 31.550,80.217 31.503,79.972 31.502 C 79.728 31.501,79.503 31.429,79.472 31.342 C 79.442 31.255,78.723 31.131,77.875 31.068 C 77.027 31.004,76.333 30.895,76.333 30.826 C 76.333 30.756,75.883 30.702,75.333 30.706 C 74.783 30.709,74.333 30.777,74.333 30.856 M120.598 30.809 C 120.550 30.888,119.891 30.994,119.135 31.046 C 118.378 31.098,117.732 31.221,117.699 31.320 C 117.666 31.419,117.476 31.500,117.278 31.501 C 117.079 31.502,116.702 31.614,116.439 31.751 C 116.177 31.888,115.854 32.000,115.721 32.000 C 115.589 32.000,115.522 32.067,115.572 32.149 C 115.623 32.231,115.486 32.343,115.267 32.397 C 114.772 32.522,112.089 35.116,111.929 35.625 C 111.864 35.831,111.741 36.000,111.655 36.000 C 111.570 36.000,111.500 36.112,111.500 36.250 C 111.500 36.387,111.434 36.500,111.352 36.500 C 111.271 36.500,111.151 36.856,111.086 37.292 C 111.021 37.727,110.881 38.137,110.775 38.202 C 110.634 38.290,110.570 41.780,110.534 51.494 L 110.485 64.667 116.159 64.667 L 121.833 64.667 121.833 53.500 C 121.833 46.167,121.891 42.333,122.000 42.333 C 122.092 42.333,122.152 42.277,122.134 42.208 C 122.033 41.829,122.388 41.333,122.761 41.333 C 122.984 41.333,123.167 41.258,123.167 41.167 C 123.167 40.864,123.691 40.993,124.009 41.375 C 124.309 41.734,124.322 42.249,124.328 53.208 L 124.333 64.667 130.161 64.667 L 135.989 64.667 136.036 53.331 L 136.083 41.995 136.616 41.498 C 137.363 40.799,138.135 40.802,138.276 41.503 C 138.331 41.780,138.442 42.047,138.522 42.097 C 138.602 42.146,138.667 47.225,138.667 53.429 L 138.667 64.671 144.458 64.627 L 150.250 64.583 150.288 52.708 C 150.310 46.177,150.264 40.833,150.187 40.833 C 150.110 40.833,150.004 40.215,149.952 39.458 C 149.864 38.190,149.580 37.040,149.302 36.830 C 149.239 36.782,149.148 36.526,149.099 36.260 C 149.051 35.994,148.944 35.733,148.862 35.680 C 148.779 35.627,148.662 35.423,148.601 35.228 C 148.479 34.836,146.263 32.500,146.013 32.500 C 145.927 32.500,145.755 32.406,145.630 32.292 C 145.240 31.933,144.730 31.694,144.105 31.576 C 143.774 31.514,143.538 31.407,143.581 31.338 C 143.667 31.198,142.299 31.004,141.208 31.001 C 140.819 31.001,140.500 30.925,140.500 30.833 C 140.500 30.631,138.889 30.608,138.765 30.808 C 138.717 30.886,138.023 31.000,137.222 31.062 C 136.421 31.123,135.724 31.236,135.674 31.311 C 135.624 31.387,135.284 31.496,134.918 31.554 C 134.552 31.611,134.227 31.736,134.196 31.829 C 134.164 31.923,133.995 32.000,133.819 32.000 C 133.644 32.000,133.500 32.075,133.500 32.167 C 133.500 32.258,133.406 32.335,133.292 32.338 C 133.177 32.341,132.865 32.566,132.597 32.838 C 132.330 33.110,132.007 33.333,131.879 33.333 C 131.751 33.333,131.693 33.408,131.750 33.500 C 131.807 33.592,131.774 33.667,131.677 33.667 C 131.579 33.667,131.500 33.774,131.500 33.905 C 131.500 34.037,131.361 34.188,131.192 34.242 C 131.023 34.296,130.799 34.526,130.696 34.753 C 130.521 35.136,130.167 35.329,130.167 35.041 C 130.167 34.809,128.170 32.833,127.935 32.833 C 127.807 32.833,127.659 32.721,127.606 32.583 C 127.554 32.446,127.366 32.333,127.190 32.333 C 127.013 32.333,126.824 32.216,126.769 32.073 C 126.714 31.929,126.593 31.859,126.501 31.916 C 126.409 31.973,126.333 31.948,126.333 31.861 C 126.333 31.774,126.128 31.651,125.877 31.588 C 125.626 31.525,125.377 31.405,125.326 31.321 C 125.274 31.237,124.652 31.119,123.943 31.059 C 123.235 30.999,122.616 30.886,122.568 30.808 C 122.453 30.623,120.713 30.624,120.598 30.809 M251.833 30.808 C 251.833 30.886,251.088 30.995,250.177 31.051 C 249.265 31.106,248.384 31.221,248.218 31.305 C 248.052 31.389,247.485 31.593,246.958 31.756 C 246.431 31.920,246.000 32.111,246.000 32.180 C 246.000 32.250,245.775 32.356,245.500 32.417 C 245.225 32.477,245.000 32.596,245.000 32.680 C 245.000 32.764,244.944 32.821,244.875 32.806 C 244.536 32.732,243.834 33.070,243.745 33.350 C 243.689 33.524,243.497 33.667,243.317 33.667 C 243.137 33.667,242.949 33.772,242.899 33.902 C 242.850 34.031,242.624 34.183,242.398 34.240 C 242.172 34.297,242.031 34.416,242.086 34.505 C 242.141 34.594,242.069 34.667,241.927 34.667 C 241.784 34.667,241.667 34.726,241.667 34.799 C 241.667 34.934,241.387 35.322,240.704 36.133 C 240.495 36.381,240.281 36.752,240.228 36.958 C 240.174 37.165,240.070 37.333,239.995 37.333 C 239.921 37.333,239.811 37.557,239.750 37.831 C 239.690 38.105,239.572 38.372,239.487 38.425 C 239.403 38.477,239.333 38.725,239.333 38.977 C 239.333 39.228,239.240 39.527,239.125 39.642 C 238.963 39.804,238.906 42.607,238.868 52.258 L 238.819 64.667 244.493 64.667 L 250.167 64.667 250.167 53.542 L 250.167 42.417 250.630 41.875 C 250.885 41.577,251.218 41.333,251.370 41.333 C 251.522 41.333,251.693 41.258,251.750 41.167 C 251.807 41.075,252.036 41.000,252.260 41.000 C 252.484 41.000,252.667 41.075,252.667 41.167 C 252.667 41.258,252.837 41.333,253.046 41.333 C 254.429 41.333,254.500 41.956,254.500 54.049 L 254.500 64.671 260.125 64.627 L 265.750 64.583 265.750 53.833 C 265.750 42.593,265.703 40.000,265.501 40.000 C 265.434 40.000,265.333 39.607,265.276 39.126 C 265.219 38.645,265.096 38.227,265.003 38.195 C 264.910 38.164,264.833 37.962,264.833 37.746 C 264.833 37.530,264.757 37.306,264.664 37.248 C 264.571 37.191,264.538 37.074,264.590 36.988 C 264.643 36.903,264.607 36.833,264.510 36.833 C 264.413 36.833,264.333 36.721,264.333 36.583 C 264.333 36.446,264.263 36.333,264.178 36.333 C 264.092 36.333,263.970 36.168,263.906 35.966 C 263.755 35.492,261.336 33.076,260.860 32.925 C 260.659 32.861,260.537 32.742,260.588 32.660 C 260.639 32.577,260.490 32.462,260.257 32.403 C 260.024 32.345,259.833 32.230,259.833 32.149 C 259.833 32.067,259.729 32.000,259.602 32.000 C 259.475 32.000,259.157 31.888,258.894 31.751 C 258.631 31.614,258.263 31.502,258.075 31.501 C 257.887 31.500,257.656 31.423,257.561 31.328 C 257.467 31.234,256.629 31.110,255.700 31.053 C 254.771 30.997,254.050 30.886,254.099 30.808 C 254.147 30.730,253.657 30.667,253.010 30.667 C 252.363 30.667,251.833 30.730,251.833 30.808 M284.432 30.808 C 284.384 30.886,283.728 30.997,282.975 31.055 C 282.222 31.113,281.529 31.237,281.436 31.330 C 281.343 31.424,281.170 31.500,281.051 31.500 C 280.745 31.500,279.500 32.056,279.500 32.193 C 279.500 32.255,279.275 32.356,279.000 32.417 C 278.725 32.477,278.500 32.596,278.500 32.680 C 278.500 32.764,278.358 32.833,278.184 32.833 C 278.011 32.833,277.826 32.946,277.773 33.083 C 277.720 33.221,277.558 33.333,277.412 33.333 C 277.266 33.333,277.193 33.408,277.250 33.500 C 277.307 33.592,277.249 33.667,277.122 33.667 C 276.995 33.667,276.523 34.004,276.074 34.417 C 275.625 34.829,275.211 35.167,275.155 35.167 C 275.099 35.167,274.911 35.430,274.738 35.751 C 274.565 36.072,274.296 36.376,274.140 36.425 C 273.984 36.475,273.808 36.737,273.748 37.008 C 273.689 37.278,273.575 37.500,273.494 37.500 C 273.414 37.500,273.299 37.762,273.239 38.083 C 273.179 38.404,273.063 38.667,272.981 38.667 C 272.900 38.667,272.833 38.848,272.833 39.069 C 272.833 39.291,272.740 39.504,272.625 39.542 C 272.469 39.594,272.417 40.337,272.417 42.500 C 272.417 44.663,272.469 45.406,272.625 45.458 C 272.740 45.497,272.833 45.709,272.833 45.931 C 272.833 46.152,272.899 46.333,272.979 46.333 C 273.059 46.333,273.172 46.633,273.231 47.000 C 273.289 47.367,273.408 47.667,273.494 47.667 C 273.581 47.667,273.700 47.924,273.759 48.239 C 273.818 48.554,274.009 48.941,274.183 49.098 C 274.357 49.256,274.500 49.476,274.500 49.587 C 274.500 49.698,274.650 49.979,274.833 50.212 C 275.017 50.445,275.167 50.755,275.167 50.901 C 275.167 51.047,275.242 51.167,275.333 51.167 C 275.425 51.167,275.500 51.270,275.500 51.396 C 275.500 51.523,275.612 51.719,275.750 51.833 C 275.887 51.947,276.000 52.182,276.000 52.354 C 276.000 52.526,276.075 52.667,276.167 52.667 C 276.258 52.667,276.333 52.854,276.333 53.083 C 276.333 53.313,276.258 53.500,276.167 53.500 C 276.075 53.500,275.998 53.631,275.995 53.792 C 275.989 54.112,275.622 54.667,275.417 54.667 C 275.345 54.667,275.191 54.798,275.074 54.958 C 274.772 55.372,271.478 55.383,271.165 54.972 C 271.118 54.910,270.874 54.808,270.623 54.745 L 270.167 54.631 270.167 59.411 C 270.167 63.098,270.216 64.235,270.381 64.387 C 270.832 64.799,271.353 64.999,272.244 65.104 C 272.752 65.164,273.167 65.277,273.167 65.356 C 273.167 65.435,274.442 65.500,276.000 65.500 C 277.558 65.500,278.833 65.435,278.833 65.355 C 278.833 65.275,279.283 65.159,279.833 65.097 C 280.383 65.034,280.833 64.912,280.833 64.825 C 280.833 64.738,281.025 64.667,281.260 64.667 C 281.494 64.667,281.645 64.600,281.595 64.518 C 281.544 64.437,281.757 64.322,282.068 64.264 C 282.766 64.133,283.667 63.696,283.667 63.488 C 283.667 63.403,283.821 63.333,284.010 63.333 C 284.199 63.333,284.310 63.264,284.257 63.179 C 284.205 63.094,284.325 62.972,284.525 62.909 C 285.009 62.755,286.833 60.941,286.833 60.614 C 286.833 60.472,286.982 60.309,287.163 60.251 C 287.345 60.193,287.483 60.095,287.470 60.032 C 287.435 59.859,287.706 59.264,287.869 59.153 C 287.947 59.100,288.051 58.837,288.099 58.570 C 288.147 58.302,288.257 58.058,288.343 58.028 C 288.429 57.997,288.500 57.806,288.500 57.603 C 288.500 57.400,288.594 57.140,288.708 57.025 C 288.859 56.874,288.917 56.015,288.917 53.917 C 288.917 51.819,288.859 50.959,288.708 50.808 C 288.594 50.694,288.500 50.427,288.500 50.217 C 288.500 50.006,288.434 49.833,288.354 49.833 C 288.218 49.833,287.928 48.903,287.978 48.625 C 287.990 48.556,287.933 48.500,287.851 48.500 C 287.770 48.500,287.656 48.313,287.598 48.083 C 287.541 47.854,287.420 47.667,287.330 47.667 C 287.240 47.667,287.167 47.554,287.167 47.417 C 287.167 47.279,287.093 47.167,287.003 47.167 C 286.913 47.167,286.793 46.979,286.735 46.750 C 286.678 46.521,286.564 46.333,286.482 46.333 C 286.400 46.333,286.333 46.232,286.333 46.109 C 286.333 45.986,286.146 45.667,285.917 45.401 C 285.232 44.605,285.123 42.686,285.728 42.081 C 285.878 41.932,286.000 41.852,286.000 41.905 C 286.000 41.957,286.150 41.850,286.333 41.667 C 286.517 41.483,286.850 41.333,287.073 41.333 C 287.297 41.333,287.527 41.258,287.583 41.167 C 287.640 41.075,287.865 41.000,288.083 41.000 C 288.302 41.000,288.527 41.075,288.583 41.167 C 288.776 41.479,289.808 41.359,289.999 41.002 C 290.329 40.385,290.206 31.667,289.865 31.562 C 289.710 31.515,289.452 31.405,289.291 31.319 C 289.130 31.233,288.321 31.115,287.493 31.056 C 286.666 30.997,285.949 30.886,285.901 30.808 C 285.787 30.624,284.546 30.624,284.432 30.808 M43.167 31.675 C 47.019 31.861,52.000 31.856,52.000 31.667 C 52.000 31.558,50.033 31.510,46.375 31.529 C 41.763 31.553,41.185 31.579,43.167 31.675 M92.667 48.083 L 92.667 64.667 98.500 64.667 L 104.333 64.667 104.333 48.083 L 104.333 31.500 98.500 31.500 L 92.667 31.500 92.667 48.083 M294.333 44.244 C 294.333 51.302,294.397 56.980,294.476 56.931 C 294.555 56.883,294.664 57.384,294.720 58.044 C 294.775 58.705,294.898 59.272,294.994 59.303 C 295.089 59.335,295.167 59.542,295.167 59.764 C 295.167 59.985,295.236 60.167,295.320 60.167 C 295.404 60.167,295.523 60.392,295.583 60.667 C 295.644 60.942,295.762 61.167,295.847 61.167 C 295.931 61.167,296.000 61.262,296.000 61.380 C 296.000 61.497,296.217 61.830,296.482 62.120 C 296.747 62.410,296.922 62.689,296.871 62.740 C 296.820 62.792,296.903 62.833,297.056 62.833 C 297.208 62.833,297.333 62.934,297.333 63.058 C 297.333 63.181,297.496 63.425,297.695 63.599 C 297.927 63.802,298.008 63.827,297.920 63.667 C 297.844 63.529,298.004 63.623,298.275 63.875 C 298.546 64.127,298.858 64.333,298.967 64.333 C 299.077 64.333,299.167 64.421,299.167 64.528 C 299.167 64.635,299.213 64.676,299.270 64.619 C 299.326 64.563,299.758 64.663,300.228 64.841 C 300.698 65.020,301.252 65.167,301.458 65.167 C 301.665 65.167,301.833 65.235,301.833 65.319 C 301.833 65.405,303.110 65.481,304.750 65.492 C 306.666 65.505,307.667 65.453,307.667 65.340 C 307.667 65.244,307.889 65.167,308.161 65.167 C 308.657 65.167,309.868 64.693,309.972 64.458 C 310.003 64.390,310.125 64.333,310.243 64.333 C 310.362 64.333,310.552 64.222,310.665 64.085 C 310.778 63.949,310.931 63.874,311.005 63.920 C 311.078 63.965,311.163 63.945,311.194 63.876 C 311.314 63.606,312.466 62.854,312.589 62.966 C 312.661 63.030,312.665 62.988,312.598 62.872 C 312.518 62.733,312.652 62.587,312.991 62.444 C 313.274 62.325,313.470 62.192,313.426 62.148 C 313.382 62.105,313.526 61.860,313.745 61.605 L 314.144 61.142 314.663 61.638 C 315.019 61.978,315.114 62.161,314.966 62.220 C 314.828 62.276,314.855 62.312,315.042 62.320 C 315.202 62.327,315.333 62.408,315.333 62.500 C 315.333 62.592,315.446 62.667,315.583 62.667 C 315.721 62.667,315.833 62.742,315.833 62.833 C 315.833 62.925,315.905 63.000,315.992 63.000 C 316.080 63.000,316.341 63.169,316.572 63.375 C 317.431 64.141,317.600 64.251,318.004 64.309 C 318.231 64.341,318.567 64.448,318.750 64.547 C 318.933 64.646,319.290 64.750,319.542 64.779 L 320.000 64.831 320.000 59.999 C 320.000 57.341,319.943 55.167,319.874 55.167 C 319.805 55.167,319.767 54.754,319.790 54.250 C 319.818 53.627,319.768 53.333,319.632 53.333 C 319.479 53.333,319.479 53.288,319.633 53.133 C 319.785 52.982,319.833 50.372,319.833 42.408 L 319.833 31.883 318.308 31.775 C 316.381 31.638,308.782 31.633,308.430 31.768 C 308.193 31.859,308.167 33.032,308.167 43.325 C 308.167 55.880,308.212 55.304,307.227 55.373 C 305.708 55.478,305.750 55.835,305.750 42.708 C 305.750 33.858,305.709 31.833,305.532 31.833 C 305.412 31.833,305.348 31.777,305.390 31.708 C 305.431 31.640,302.961 31.558,299.899 31.526 L 294.333 31.469 294.333 44.244 M183.250 33.095 C 183.250 33.582,183.177 33.760,182.958 33.802 C 182.549 33.880,182.427 33.436,182.691 32.838 C 182.988 32.168,183.250 32.289,183.250 33.095 M60.098 37.750 C 60.041 37.979,59.928 38.167,59.848 38.167 C 59.539 38.167,58.611 39.844,58.810 40.043 C 58.952 40.186,59.000 40.137,59.000 39.847 C 59.000 39.550,59.073 39.480,59.316 39.544 C 59.539 39.602,59.619 39.547,59.589 39.355 C 59.565 39.205,59.774 38.877,60.053 38.625 C 60.332 38.373,60.490 38.166,60.405 38.164 C 60.320 38.163,60.355 38.095,60.483 38.014 C 60.724 37.861,60.627 37.333,60.357 37.333 C 60.272 37.333,60.156 37.521,60.098 37.750 M33.005 39.107 C 33.013 39.310,33.482 39.907,33.567 39.821 C 33.606 39.782,33.494 39.573,33.319 39.357 C 33.144 39.140,33.002 39.028,33.005 39.107 M57.943 41.201 C 57.841 41.591,57.995 41.893,58.119 41.546 C 58.159 41.434,58.180 41.292,58.165 41.231 C 58.150 41.170,58.238 41.057,58.361 40.980 C 58.535 40.869,58.524 40.838,58.311 40.836 C 58.161 40.834,57.996 40.999,57.943 41.201 M57.592 41.985 C 57.531 42.085,57.523 42.236,57.576 42.322 C 57.629 42.407,57.596 42.524,57.503 42.582 C 57.274 42.723,57.286 43.333,57.518 43.333 C 57.619 43.333,57.662 43.229,57.614 43.102 C 57.565 42.975,57.641 42.707,57.782 42.505 C 57.953 42.260,57.983 42.083,57.871 41.971 C 57.760 41.860,57.667 41.864,57.592 41.985 M57.076 43.678 C 57.016 43.776,57.007 43.896,57.056 43.944 C 57.175 44.064,57.500 43.853,57.500 43.657 C 57.500 43.444,57.212 43.458,57.076 43.678 M56.821 44.792 C 56.814 44.952,56.775 45.266,56.734 45.490 C 56.620 46.110,56.844 45.775,56.997 45.097 C 57.074 44.757,57.067 44.500,56.982 44.500 C 56.900 44.500,56.828 44.631,56.821 44.792 M56.601 46.764 C 56.442 47.179,56.488 49.057,56.665 49.333 C 56.772 49.502,56.817 49.080,56.802 48.042 C 56.778 46.423,56.764 46.338,56.601 46.764 M187.333 49.417 C 187.333 49.611,187.112 49.667,186.339 49.667 C 184.609 49.667,184.134 50.381,183.958 53.250 C 183.878 54.538,183.424 54.092,183.367 52.671 C 183.310 51.247,183.821 49.963,184.643 49.464 C 185.250 49.096,187.333 49.059,187.333 49.417 M56.728 51.042 C 56.745 51.156,56.819 51.345,56.891 51.461 C 56.963 51.576,57.029 51.895,57.037 52.169 C 57.051 52.669,57.500 52.910,57.500 52.417 C 57.500 52.279,57.435 52.167,57.355 52.167 C 57.275 52.167,57.161 51.867,57.103 51.500 C 57.044 51.133,56.929 50.833,56.846 50.833 C 56.764 50.833,56.710 50.927,56.728 51.042 M197.500 51.750 C 197.500 51.887,197.387 52.000,197.250 52.000 C 197.112 52.000,197.000 52.075,197.000 52.167 C 197.000 52.258,196.888 52.333,196.751 52.333 C 196.615 52.333,196.371 52.614,196.209 52.956 C 195.880 53.655,195.333 53.903,195.333 53.353 C 195.333 53.168,195.414 52.843,195.513 52.633 C 195.881 51.849,197.500 51.130,197.500 51.750 M187.407 52.537 C 187.785 53.076,187.746 53.667,187.333 53.667 C 187.097 53.667,187.000 53.556,187.000 53.283 C 187.000 53.072,186.917 52.817,186.815 52.715 C 186.622 52.522,186.743 52.167,187.000 52.167 C 187.081 52.167,187.265 52.333,187.407 52.537 M57.453 53.627 C 57.498 53.969,57.602 54.275,57.684 54.306 C 57.766 54.336,57.833 54.489,57.833 54.645 C 57.833 54.953,58.492 56.341,58.513 56.077 C 58.520 55.989,58.614 56.196,58.721 56.538 C 58.868 57.006,58.974 57.124,59.149 57.014 C 59.338 56.894,59.308 56.766,58.982 56.311 C 58.476 55.604,58.000 54.556,58.000 54.148 C 58.000 53.975,57.925 53.833,57.833 53.833 C 57.742 53.833,57.667 53.688,57.667 53.510 C 57.667 53.332,57.600 53.145,57.519 53.095 C 57.437 53.044,57.407 53.284,57.453 53.627 M228.917 56.121 C 228.550 56.154,228.014 56.290,227.725 56.424 C 227.436 56.557,227.153 56.667,227.097 56.667 C 226.900 56.667,225.833 57.863,225.833 58.084 C 225.833 58.206,225.740 58.337,225.626 58.375 C 225.352 58.466,225.331 61.789,225.603 61.964 C 225.705 62.030,225.840 62.248,225.903 62.450 C 225.966 62.651,226.163 62.863,226.342 62.919 C 226.521 62.976,226.667 63.092,226.667 63.178 C 226.667 63.263,226.773 63.333,226.903 63.333 C 227.033 63.333,227.166 63.413,227.198 63.511 C 227.231 63.608,227.574 63.731,227.962 63.783 C 228.350 63.835,228.667 63.942,228.667 64.022 C 228.667 64.102,228.967 64.167,229.333 64.167 C 229.700 64.167,230.000 64.092,230.000 64.000 C 230.000 63.908,230.195 63.833,230.433 63.833 C 230.985 63.833,232.027 63.345,231.903 63.144 C 231.851 63.060,231.870 63.006,231.946 63.022 C 232.213 63.082,232.667 62.794,232.667 62.566 C 232.667 62.438,232.740 62.333,232.830 62.333 C 232.920 62.333,233.041 62.146,233.098 61.917 C 233.156 61.688,233.262 61.500,233.334 61.500 C 233.445 61.500,233.661 60.454,233.661 59.917 C 233.661 59.343,233.441 58.333,233.316 58.333 C 233.234 58.333,233.167 58.221,233.167 58.083 C 233.167 57.732,231.896 56.500,231.533 56.500 C 231.368 56.500,231.162 56.435,231.075 56.355 C 230.869 56.165,229.761 56.045,228.917 56.121 M175.167 57.885 C 175.167 58.006,175.392 58.320,175.667 58.583 C 175.942 58.847,176.167 59.161,176.167 59.281 C 176.167 59.402,176.234 59.500,176.317 59.500 C 176.449 59.500,176.989 60.268,177.373 61.000 C 178.022 62.238,178.045 62.253,179.226 62.205 C 180.469 62.154,180.557 62.275,180.133 63.448 C 179.864 64.190,181.051 65.000,182.406 65.000 C 182.550 65.000,182.667 65.065,182.667 65.144 C 182.667 65.223,183.082 65.336,183.589 65.396 C 184.096 65.455,184.640 65.572,184.797 65.655 C 184.955 65.737,185.533 66.008,186.083 66.257 L 187.083 66.710 191.632 66.598 C 194.280 66.533,196.369 66.410,196.632 66.303 C 198.770 65.435,199.712 64.969,200.417 64.433 C 201.288 63.770,201.328 63.703,201.331 62.908 C 201.334 62.069,202.097 61.365,202.361 61.958 C 202.688 62.694,204.599 63.348,204.917 62.833 C 204.973 62.742,205.240 62.667,205.510 62.667 C 205.822 62.667,206.000 62.581,206.000 62.431 C 206.000 62.301,206.056 62.169,206.125 62.139 C 206.338 62.044,206.999 60.654,207.011 60.276 C 207.059 58.719,209.226 56.955,209.477 58.268 C 209.510 58.441,209.641 58.643,209.769 58.717 C 209.896 58.790,210.000 58.935,210.000 59.039 C 210.000 59.143,210.159 59.398,210.354 59.606 C 210.850 60.134,210.661 60.697,210.144 60.231 C 209.952 60.058,209.732 59.752,209.655 59.550 C 209.578 59.349,209.320 59.056,209.082 58.900 C 208.050 58.224,207.212 60.502,208.011 61.812 C 208.505 62.623,208.349 62.833,207.255 62.833 C 206.489 62.833,206.333 62.883,206.331 63.125 C 206.317 64.674,205.556 65.122,204.575 64.158 C 203.911 63.507,203.817 63.465,203.385 63.632 C 203.128 63.731,202.684 63.858,202.400 63.914 C 201.522 64.086,200.500 65.367,200.500 66.295 C 200.500 66.962,200.360 67.042,199.842 66.673 C 199.154 66.183,198.559 66.090,198.088 66.398 C 197.863 66.546,197.541 66.667,197.373 66.667 C 197.204 66.667,196.978 66.756,196.869 66.865 C 196.728 67.005,195.194 67.083,191.544 67.135 L 186.417 67.207 185.751 66.812 C 184.016 65.782,182.267 65.613,181.509 66.402 C 180.799 67.141,180.563 67.154,180.443 66.458 C 180.152 64.777,179.965 64.438,179.254 64.307 C 179.073 64.274,178.839 64.074,178.734 63.863 C 178.243 62.879,177.660 62.500,176.635 62.500 C 175.583 62.500,175.406 62.275,175.922 61.593 C 176.473 60.864,176.256 60.521,175.208 60.467 C 174.130 60.410,173.713 59.755,174.490 59.339 C 175.464 58.817,174.831 58.372,173.778 58.838 C 173.032 59.168,172.637 59.500,172.990 59.500 C 173.182 59.500,173.235 60.209,173.057 60.387 C 172.822 60.622,172.500 60.094,172.500 59.474 C 172.500 59.004,172.581 58.794,172.792 58.719 C 172.952 58.663,173.220 58.498,173.388 58.354 C 173.985 57.840,175.167 57.529,175.167 57.885 M222.333 68.500 C 222.333 68.592,222.189 68.667,222.012 68.667 C 221.835 68.667,221.575 68.782,221.435 68.923 C 221.294 69.063,221.136 69.173,221.083 69.165 C 220.871 69.135,220.204 69.787,220.095 70.131 C 220.030 70.334,219.908 70.500,219.822 70.500 C 219.737 70.500,219.667 70.688,219.667 70.917 C 219.667 71.146,219.592 71.333,219.500 71.333 C 219.406 71.333,219.333 71.806,219.333 72.417 C 219.333 73.028,219.406 73.500,219.500 73.500 C 219.592 73.500,219.667 73.650,219.667 73.833 C 219.667 74.017,219.742 74.167,219.833 74.167 C 219.925 74.167,220.000 74.268,220.000 74.391 C 220.000 74.693,220.708 75.500,220.973 75.500 C 221.091 75.500,221.148 75.562,221.102 75.637 C 220.781 76.156,224.771 76.576,225.144 76.062 C 225.202 75.982,225.475 75.804,225.750 75.668 C 226.515 75.288,227.145 74.645,227.258 74.129 C 227.314 73.873,227.419 73.700,227.491 73.745 C 227.696 73.871,227.843 72.395,227.726 71.398 C 227.668 70.904,227.556 70.500,227.477 70.500 C 227.398 70.500,227.333 70.398,227.333 70.274 C 227.333 69.958,225.835 68.667,225.468 68.667 C 225.302 68.667,225.167 68.592,225.167 68.500 C 225.167 68.402,224.583 68.333,223.750 68.333 C 222.917 68.333,222.333 68.402,222.333 68.500 M206.042 76.775 C 205.835 76.820,205.667 76.926,205.667 77.012 C 205.667 77.097,205.475 77.167,205.240 77.167 C 205.006 77.167,204.855 77.234,204.906 77.316 C 204.956 77.397,204.800 77.514,204.558 77.575 C 204.134 77.681,202.667 79.035,202.667 79.319 C 202.667 79.396,202.554 79.553,202.417 79.667 C 202.279 79.781,202.167 80.046,202.167 80.257 C 202.167 80.467,202.077 80.669,201.967 80.705 C 201.647 80.812,201.696 84.833,202.017 84.833 C 202.080 84.833,202.178 85.021,202.235 85.250 C 202.293 85.479,202.413 85.667,202.503 85.667 C 202.593 85.667,202.667 85.753,202.667 85.859 C 202.667 86.082,204.018 87.371,204.132 87.257 C 204.174 87.215,204.330 87.322,204.479 87.493 C 205.151 88.269,210.667 88.411,210.667 87.653 C 210.667 87.569,210.779 87.500,210.917 87.500 C 211.054 87.500,211.167 87.433,211.167 87.351 C 211.167 87.270,211.335 87.156,211.542 87.098 C 211.748 87.041,212.142 86.693,212.417 86.326 C 212.692 85.958,213.007 85.556,213.117 85.432 C 213.227 85.308,213.366 85.010,213.427 84.770 C 213.487 84.530,213.603 84.333,213.685 84.333 C 213.766 84.333,213.833 84.075,213.833 83.760 C 213.833 83.444,213.909 83.140,214.001 83.083 C 214.190 82.966,214.151 81.500,213.958 81.500 C 213.890 81.500,213.833 81.237,213.833 80.917 C 213.833 80.596,213.758 80.333,213.667 80.333 C 213.575 80.333,213.500 80.143,213.500 79.911 C 213.500 79.679,213.387 79.446,213.250 79.394 C 213.112 79.341,213.000 79.212,212.999 79.107 C 212.998 78.820,211.885 77.667,211.610 77.667 C 211.477 77.667,211.326 77.554,211.273 77.417 C 211.220 77.279,210.994 77.167,210.769 77.167 C 210.545 77.167,210.332 77.078,210.296 76.970 C 210.228 76.768,206.796 76.610,206.042 76.775 " stroke="none" fill="#ed952c" fill-rule="evenodd"></path><path id="path1" d="M174.134 28.455 C 173.612 28.709,173.151 29.048,173.108 29.208 C 173.066 29.369,172.912 29.500,172.766 29.500 C 172.620 29.500,172.500 29.599,172.500 29.721 C 172.500 29.842,172.321 30.110,172.103 30.315 C 171.884 30.520,171.453 31.186,171.144 31.793 L 170.583 32.899 170.583 35.424 C 170.583 36.980,170.657 38.102,170.775 38.349 C 170.880 38.570,171.082 39.015,171.224 39.339 C 171.366 39.663,171.711 40.133,171.991 40.382 C 172.271 40.632,172.500 40.939,172.500 41.065 C 172.500 41.191,172.631 41.340,172.792 41.395 C 172.952 41.451,173.308 41.642,173.583 41.819 C 173.963 42.064,174.395 42.145,175.375 42.154 C 176.085 42.161,176.667 42.233,176.667 42.314 C 176.667 42.458,176.373 42.539,174.833 42.819 L 174.083 42.955 175.032 42.978 C 175.554 42.990,176.027 42.925,176.083 42.833 C 176.140 42.742,176.402 42.667,176.665 42.667 C 176.928 42.667,177.255 42.554,177.393 42.417 C 177.530 42.279,177.697 42.167,177.763 42.167 C 177.977 42.167,179.000 41.023,179.000 40.784 C 179.000 40.656,179.146 40.420,179.324 40.259 C 179.502 40.097,179.695 39.748,179.754 39.483 C 179.812 39.217,179.923 39.000,180.000 39.000 C 180.077 39.000,180.193 38.756,180.257 38.458 C 180.321 38.160,180.515 37.638,180.687 37.298 C 181.037 36.607,181.153 33.114,180.833 32.917 C 180.742 32.860,180.667 32.480,180.667 32.071 C 180.667 31.663,180.595 31.199,180.508 31.039 C 180.421 30.880,180.303 30.320,180.246 29.794 C 180.190 29.269,180.081 28.800,180.004 28.753 C 179.928 28.705,179.905 28.967,179.954 29.333 C 180.072 30.213,179.775 30.213,178.917 29.333 C 178.559 28.967,178.195 28.667,178.110 28.667 C 178.024 28.667,177.859 28.537,177.743 28.379 C 177.357 27.851,175.285 27.895,174.134 28.455 M205.667 28.167 C 205.493 28.279,205.815 28.329,206.714 28.331 C 208.565 28.334,210.251 29.207,209.701 29.877 C 209.608 29.991,209.506 30.269,209.474 30.496 C 209.443 30.723,209.248 30.992,209.043 31.094 C 208.837 31.196,208.531 31.404,208.363 31.556 C 207.257 32.557,205.086 31.121,205.192 29.459 C 205.261 28.373,205.093 28.357,204.151 29.361 C 203.275 30.295,202.362 29.783,203.208 28.833 C 203.385 28.635,203.373 28.632,203.129 28.816 C 202.971 28.936,202.799 29.307,202.745 29.642 C 202.692 29.976,202.578 30.380,202.491 30.539 C 202.404 30.699,202.333 31.163,202.333 31.571 C 202.333 31.980,202.258 32.360,202.167 32.417 C 202.070 32.477,202.000 33.415,202.000 34.667 C 202.000 35.918,202.070 36.857,202.167 36.917 C 202.258 36.973,202.333 37.198,202.333 37.417 C 202.333 37.635,202.403 37.856,202.487 37.909 C 202.572 37.961,202.694 38.247,202.758 38.544 C 202.823 38.840,203.152 39.421,203.491 39.833 C 203.829 40.246,204.227 40.847,204.375 41.169 C 204.820 42.135,206.578 43.333,206.234 42.435 C 206.145 42.203,206.299 42.167,207.364 42.167 C 209.001 42.167,211.500 40.685,211.500 39.715 C 211.500 39.597,211.575 39.500,211.667 39.500 C 211.758 39.500,211.833 39.418,211.833 39.317 C 211.833 39.216,211.939 38.897,212.068 38.609 C 212.568 37.490,212.880 33.980,212.512 33.612 C 212.414 33.514,212.333 33.260,212.333 33.048 C 212.333 32.589,211.735 31.264,211.402 30.988 C 211.273 30.881,211.164 30.708,211.161 30.605 C 211.155 30.363,210.398 29.500,210.194 29.500 C 210.108 29.500,209.918 29.316,209.771 29.092 C 209.209 28.234,206.505 27.625,205.667 28.167 M177.677 28.596 C 178.975 30.160,176.152 32.664,174.442 31.464 C 173.165 30.568,173.095 28.667,174.339 28.667 C 174.611 28.667,174.833 28.592,174.833 28.500 C 174.833 28.205,177.425 28.293,177.677 28.596 M177.557 40.473 C 178.320 41.269,177.729 41.790,175.875 41.954 L 174.833 42.046 174.833 41.409 C 174.833 40.022,176.558 39.429,177.557 40.473 M208.024 40.498 C 208.505 41.003,208.583 41.257,208.399 41.736 C 208.160 42.359,205.167 41.779,205.167 41.110 C 205.167 39.974,207.122 39.555,208.024 40.498 M397.716 49.371 C 397.346 49.849,397.309 50.057,397.659 49.697 C 397.865 49.485,397.999 49.277,397.957 49.235 C 397.915 49.193,397.807 49.254,397.716 49.371 M196.576 51.844 C 196.516 51.942,196.507 52.062,196.556 52.111 C 196.675 52.230,197.000 52.020,197.000 51.823 C 197.000 51.611,196.712 51.625,196.576 51.844 M187.169 53.042 C 187.168 53.294,187.242 53.500,187.333 53.500 C 187.544 53.500,187.544 53.159,187.333 52.833 C 187.207 52.639,187.171 52.685,187.169 53.042 M174.667 58.167 C 174.667 58.258,174.742 58.333,174.833 58.333 C 174.925 58.333,175.000 58.512,175.000 58.731 C 175.000 59.000,175.118 59.159,175.368 59.224 C 175.920 59.368,175.926 59.238,175.397 58.601 C 174.907 58.012,174.667 57.869,174.667 58.167 M173.625 58.399 C 173.159 58.752,173.287 58.866,173.833 58.583 C 174.108 58.441,174.333 58.289,174.333 58.246 C 174.333 58.090,173.911 58.181,173.625 58.399 M172.667 59.730 C 172.667 59.868,172.742 60.027,172.833 60.083 C 172.925 60.140,173.000 60.074,173.000 59.936 C 173.000 59.799,172.925 59.640,172.833 59.583 C 172.742 59.527,172.667 59.593,172.667 59.730 M175.947 59.897 C 175.903 60.013,176.009 60.196,176.183 60.305 C 176.357 60.414,176.500 60.652,176.500 60.835 C 176.500 61.056,176.612 61.167,176.833 61.167 C 177.017 61.167,177.167 61.103,177.167 61.026 C 177.167 60.948,177.017 60.749,176.833 60.583 C 176.650 60.417,176.500 60.189,176.500 60.075 C 176.500 59.788,176.045 59.642,175.947 59.897 M207.278 60.111 C 207.105 60.284,207.147 61.135,207.333 61.250 C 207.434 61.312,207.500 61.085,207.500 60.677 C 207.500 59.986,207.473 59.916,207.278 60.111 M177.333 61.889 C 177.333 62.150,177.426 62.333,177.558 62.333 C 177.681 62.333,177.914 62.479,178.075 62.657 C 178.304 62.911,178.414 62.938,178.584 62.782 C 178.756 62.623,178.712 62.567,178.363 62.499 C 178.122 62.453,177.841 62.245,177.738 62.038 C 177.444 61.448,177.333 61.408,177.333 61.889 M175.921 61.993 C 175.779 62.222,175.905 62.394,176.151 62.309 C 176.252 62.274,176.265 62.157,176.182 62.024 C 176.078 61.856,176.010 61.848,175.921 61.993 M201.750 62.167 C 201.693 62.258,201.786 62.333,201.957 62.333 C 202.127 62.333,202.373 62.427,202.504 62.542 C 202.634 62.656,202.600 62.581,202.428 62.375 C 202.086 61.965,201.908 61.911,201.750 62.167 M179.500 62.500 C 179.500 62.592,179.575 62.667,179.667 62.667 C 179.758 62.667,179.833 62.821,179.833 63.010 C 179.833 63.199,179.908 63.307,180.000 63.250 C 180.322 63.051,180.192 62.333,179.833 62.333 C 179.650 62.333,179.500 62.408,179.500 62.500 M202.667 63.167 C 202.667 63.389,202.778 63.500,203.000 63.500 C 203.396 63.500,203.447 63.079,203.070 62.934 C 202.687 62.788,202.667 62.800,202.667 63.167 M204.917 63.000 C 204.855 63.099,205.054 63.167,205.407 63.167 C 205.733 63.167,206.000 63.092,206.000 63.000 C 206.000 62.908,205.779 62.833,205.510 62.833 C 205.240 62.833,204.973 62.908,204.917 63.000 M179.024 63.755 C 179.103 64.169,179.833 64.316,179.833 63.918 C 179.833 63.769,179.755 63.695,179.659 63.755 C 179.564 63.814,179.368 63.764,179.223 63.645 C 178.999 63.458,178.971 63.474,179.024 63.755 M204.987 64.210 C 205.403 64.680,205.667 64.793,205.667 64.500 C 205.667 64.408,205.579 64.333,205.471 64.333 C 205.364 64.333,205.120 64.203,204.930 64.043 C 204.678 63.832,204.694 63.878,204.987 64.210 M200.458 64.610 C 199.968 64.869,199.884 65.075,200.192 65.266 C 200.298 65.331,200.482 65.243,200.603 65.067 C 200.723 64.893,200.902 64.656,201.001 64.542 C 201.227 64.278,201.044 64.301,200.458 64.610 M180.345 65.046 C 180.363 65.614,180.639 66.213,180.655 65.718 C 180.674 65.109,181.667 64.988,181.667 65.595 C 181.667 65.726,181.742 65.833,181.833 65.833 C 181.925 65.833,182.000 65.758,182.000 65.667 C 182.000 65.575,182.112 65.500,182.250 65.500 C 182.387 65.500,182.500 65.425,182.500 65.333 C 182.500 65.242,182.327 65.167,182.117 65.167 C 181.906 65.167,181.662 65.102,181.575 65.022 C 181.164 64.647,180.333 64.663,180.345 65.046 M198.667 65.667 C 198.465 65.797,198.488 65.829,198.792 65.831 C 198.998 65.832,199.167 65.758,199.167 65.667 C 199.167 65.458,198.990 65.458,198.667 65.667 M192.833 66.833 C 192.833 66.925,193.241 67.000,193.740 67.000 C 194.239 67.000,194.693 66.925,194.750 66.833 C 194.814 66.729,194.474 66.667,193.843 66.667 C 193.281 66.667,192.833 66.741,192.833 66.833 " stroke="none" fill="#1e4a22" fill-rule="evenodd"></path><path id="path2" d="M176.910 26.011 C 176.801 26.187,177.272 26.833,177.511 26.833 C 177.707 26.833,179.426 28.540,179.641 28.947 C 180.103 29.823,179.839 29.909,179.042 29.142 C 178.158 28.292,177.620 28.003,177.783 28.467 C 177.864 28.698,177.841 28.711,177.658 28.542 C 177.415 28.316,174.834 28.240,174.833 28.458 C 174.833 28.527,175.362 28.558,176.009 28.528 C 176.657 28.497,177.313 28.527,177.468 28.595 C 177.623 28.663,177.864 28.705,178.004 28.688 C 178.143 28.672,178.552 28.960,178.913 29.329 C 179.775 30.213,180.073 30.214,179.954 29.333 C 179.905 28.967,179.928 28.705,180.004 28.753 C 180.081 28.800,180.190 29.269,180.246 29.794 C 180.303 30.320,180.421 30.880,180.508 31.039 C 180.595 31.199,180.667 31.663,180.667 32.071 C 180.667 32.480,180.742 32.860,180.833 32.917 C 181.153 33.114,181.037 36.607,180.687 37.298 C 180.515 37.638,180.321 38.160,180.257 38.458 C 180.193 38.756,180.080 39.000,180.006 39.000 C 179.862 39.000,179.637 39.692,179.745 39.801 C 179.825 39.880,180.500 38.423,180.500 38.172 C 180.500 38.074,180.688 37.696,180.917 37.333 C 181.349 36.649,181.564 33.162,181.188 32.930 C 181.108 32.881,181.006 32.456,180.961 31.986 C 180.916 31.516,180.805 31.083,180.715 31.024 C 180.624 30.965,180.499 30.469,180.436 29.921 C 180.363 29.284,180.204 28.800,179.994 28.577 C 179.814 28.385,179.667 28.156,179.667 28.068 C 179.667 27.980,179.498 27.767,179.292 27.595 C 179.085 27.423,178.564 26.956,178.132 26.558 C 177.321 25.808,177.097 25.708,176.910 26.011 M205.667 26.083 C 205.553 26.221,205.367 26.333,205.255 26.333 C 205.019 26.333,202.833 28.628,202.833 28.876 C 202.833 28.966,202.965 28.941,203.125 28.820 C 203.373 28.632,203.386 28.634,203.208 28.833 C 202.362 29.783,203.275 30.295,204.151 29.361 C 204.840 28.627,205.367 28.353,205.229 28.800 C 205.151 29.054,205.161 29.053,205.329 28.792 C 205.824 28.022,209.481 28.713,209.718 29.621 C 209.788 29.891,209.796 29.891,209.814 29.630 C 209.849 29.107,211.146 30.044,211.161 30.605 C 211.164 30.708,211.273 30.881,211.402 30.988 C 211.735 31.264,212.333 32.589,212.333 33.048 C 212.333 33.260,212.414 33.514,212.512 33.612 C 212.819 33.919,212.537 37.909,212.172 38.417 C 211.950 38.725,211.832 39.187,212.002 39.082 C 212.093 39.026,212.167 38.872,212.167 38.740 C 212.167 38.608,212.233 38.500,212.315 38.500 C 212.670 38.500,213.009 33.775,212.677 33.444 C 212.580 33.347,212.500 33.109,212.500 32.916 C 212.500 32.486,211.695 30.833,211.485 30.833 C 211.402 30.833,211.333 30.755,211.333 30.660 C 211.333 30.453,210.643 29.442,210.442 29.356 C 210.365 29.322,210.065 29.096,209.776 28.852 C 208.756 27.993,206.120 27.404,205.775 27.958 C 205.732 28.027,206.188 28.058,206.788 28.026 C 207.893 27.969,208.873 28.247,209.542 28.807 C 210.111 29.285,209.821 29.294,208.958 28.827 C 208.192 28.412,207.883 28.348,206.487 28.315 L 204.893 28.277 204.169 29.061 C 203.391 29.906,202.945 29.906,203.389 29.061 C 203.692 28.486,205.141 27.043,205.690 26.771 C 205.906 26.663,206.107 26.408,206.137 26.204 C 206.198 25.778,205.969 25.719,205.667 26.083 M174.776 27.958 C 174.733 28.027,175.291 28.083,176.015 28.083 C 176.740 28.083,177.333 28.027,177.333 27.958 C 177.333 27.890,176.775 27.833,176.093 27.833 C 175.411 27.833,174.818 27.890,174.776 27.958 M173.625 28.464 C 173.281 28.619,173.000 28.813,173.000 28.896 C 173.000 28.979,172.869 29.146,172.708 29.268 C 172.432 29.478,172.433 29.490,172.724 29.495 C 172.894 29.498,173.070 29.351,173.118 29.167 C 173.303 28.459,173.611 28.822,173.578 29.708 C 173.556 30.286,173.570 30.358,173.617 29.920 C 173.697 29.191,173.878 28.891,174.304 28.782 C 174.458 28.743,174.381 28.725,174.134 28.742 C 173.887 28.759,173.722 28.712,173.769 28.637 C 173.815 28.561,173.957 28.500,174.083 28.500 C 174.210 28.500,174.360 28.425,174.417 28.333 C 174.559 28.103,174.355 28.137,173.625 28.464 M202.611 29.278 C 202.550 29.339,202.500 29.624,202.500 29.911 C 202.500 30.198,202.432 30.505,202.349 30.592 C 201.994 30.966,201.674 36.574,201.990 36.890 C 202.087 36.987,202.167 37.190,202.167 37.341 C 202.167 37.604,202.632 38.667,202.747 38.667 C 202.858 38.667,202.622 37.992,202.480 37.904 C 202.399 37.854,202.333 37.635,202.333 37.417 C 202.333 37.198,202.258 36.973,202.167 36.917 C 202.070 36.857,202.000 35.918,202.000 34.667 C 202.000 33.415,202.070 32.477,202.167 32.417 C 202.258 32.360,202.333 31.958,202.333 31.523 C 202.333 31.089,202.399 30.662,202.478 30.575 C 202.611 30.430,202.871 29.167,202.767 29.167 C 202.743 29.167,202.672 29.217,202.611 29.278 M171.990 30.158 C 170.679 31.463,169.759 36.001,170.443 37.781 C 170.529 38.003,170.586 37.091,170.589 35.448 L 170.595 32.750 171.142 31.750 C 171.443 31.200,171.885 30.545,172.124 30.293 C 172.679 29.711,172.559 29.591,171.990 30.158 M352.667 30.794 C 352.667 30.879,351.786 30.996,350.710 31.054 C 349.618 31.112,348.727 31.234,348.696 31.329 C 348.664 31.423,348.476 31.500,348.278 31.499 C 347.876 31.498,346.298 32.017,346.165 32.194 C 346.118 32.256,345.874 32.358,345.623 32.422 C 345.372 32.485,345.167 32.603,345.167 32.685 C 345.167 32.766,345.072 32.833,344.957 32.833 C 344.841 32.833,344.544 33.021,344.297 33.250 C 344.050 33.479,343.795 33.667,343.730 33.667 C 343.541 33.667,341.667 35.624,341.667 35.821 C 341.667 35.919,341.593 36.000,341.503 36.000 C 341.413 36.000,341.293 36.188,341.235 36.417 C 341.178 36.646,341.070 36.833,340.995 36.833 C 340.921 36.833,340.810 37.058,340.750 37.333 C 340.690 37.608,340.571 37.833,340.487 37.833 C 340.402 37.833,340.333 37.979,340.333 38.157 C 340.333 38.335,340.265 38.522,340.182 38.574 C 340.099 38.625,339.978 39.061,339.914 39.542 C 339.849 40.023,339.711 40.522,339.606 40.650 C 339.470 40.819,339.401 44.207,339.362 52.775 L 339.308 64.667 344.987 64.667 L 350.667 64.667 350.667 60.839 L 350.667 57.012 352.375 56.964 L 354.083 56.917 354.128 52.428 C 354.179 47.233,354.357 47.673,352.208 47.669 L 350.667 47.667 350.667 45.417 C 350.667 44.028,350.730 43.167,350.833 43.167 C 350.925 43.167,351.000 43.009,351.000 42.817 C 351.000 42.182,351.532 41.509,352.121 41.399 C 352.423 41.342,352.711 41.229,352.762 41.148 C 353.148 40.522,354.768 41.295,355.007 42.219 C 355.107 42.603,355.258 43.147,355.344 43.428 C 355.434 43.723,355.500 48.347,355.500 54.303 L 355.500 64.667 361.083 64.667 L 366.667 64.667 366.667 52.333 C 366.667 45.550,366.602 40.000,366.524 40.000 C 366.445 40.000,366.332 39.535,366.273 38.966 C 366.213 38.397,366.090 37.857,365.999 37.766 C 365.908 37.675,365.833 37.465,365.833 37.300 C 365.833 37.135,365.758 37.000,365.667 37.000 C 365.575 37.000,365.500 36.879,365.500 36.730 C 365.500 36.037,363.379 33.333,362.835 33.333 C 362.743 33.333,362.667 33.276,362.667 33.205 C 362.667 33.134,362.310 32.890,361.875 32.663 C 361.440 32.436,361.058 32.194,361.028 32.125 C 360.997 32.056,360.875 32.000,360.755 32.000 C 360.636 32.000,360.323 31.888,360.061 31.751 C 359.798 31.614,359.383 31.502,359.139 31.501 C 358.894 31.500,358.669 31.425,358.639 31.334 C 358.590 31.187,357.499 31.053,353.708 30.728 C 353.111 30.676,352.667 30.705,352.667 30.794 M385.957 30.847 C 385.843 30.907,385.076 31.001,384.252 31.056 C 383.428 31.111,382.728 31.233,382.696 31.328 C 382.665 31.423,382.459 31.500,382.239 31.500 C 381.869 31.500,381.147 31.732,379.917 32.245 C 379.642 32.360,379.061 32.595,378.626 32.769 C 378.191 32.942,377.834 33.140,377.834 33.208 C 377.834 33.277,377.721 33.333,377.583 33.333 C 377.446 33.333,377.333 33.403,377.333 33.489 C 377.333 33.574,377.199 33.687,377.034 33.739 C 376.870 33.791,376.457 34.096,376.117 34.417 C 375.777 34.738,375.426 35.000,375.337 35.000 C 375.247 35.000,375.042 35.206,374.880 35.458 C 374.719 35.710,374.417 36.103,374.210 36.332 C 374.003 36.560,373.833 36.841,373.833 36.957 C 373.833 37.072,373.766 37.167,373.685 37.167 C 373.603 37.167,373.485 37.372,373.422 37.623 C 373.358 37.874,373.235 38.124,373.148 38.178 C 373.060 38.233,372.947 38.571,372.897 38.930 C 372.848 39.289,372.742 39.733,372.662 39.917 C 372.344 40.648,372.289 42.357,372.227 53.292 L 372.162 64.667 377.914 64.667 L 383.667 64.667 383.667 53.340 L 383.667 42.014 384.292 41.364 C 385.756 39.839,388.178 40.619,388.161 42.609 C 388.152 43.674,387.700 44.046,386.281 44.157 L 385.083 44.250 385.039 48.875 L 384.995 53.500 387.581 53.500 C 389.003 53.500,390.167 53.436,390.167 53.357 C 390.167 53.278,390.635 53.165,391.208 53.105 C 391.781 53.046,392.275 52.922,392.306 52.832 C 392.336 52.741,392.509 52.667,392.689 52.667 C 393.104 52.667,395.333 51.660,395.333 51.473 C 395.333 51.396,395.434 51.333,395.557 51.333 C 395.840 51.333,398.500 48.691,398.500 48.410 C 398.500 48.296,398.613 48.159,398.750 48.106 C 398.887 48.054,399.000 47.858,399.000 47.672 C 399.000 47.486,399.063 47.333,399.140 47.333 C 399.846 47.333,400.260 40.666,399.637 39.333 C 399.488 39.012,399.231 38.431,399.067 38.042 C 398.903 37.652,398.709 37.333,398.635 37.333 C 398.561 37.333,398.500 37.237,398.500 37.120 C 398.500 36.706,395.721 33.667,395.343 33.667 C 395.255 33.667,394.982 33.479,394.734 33.250 C 394.487 33.021,394.146 32.833,393.976 32.833 C 393.806 32.833,393.667 32.764,393.667 32.680 C 393.667 32.596,393.442 32.477,393.167 32.417 C 392.892 32.356,392.667 32.255,392.667 32.193 C 392.667 32.036,391.401 31.500,391.032 31.500 C 390.868 31.500,390.652 31.418,390.552 31.319 C 390.453 31.219,389.744 31.097,388.977 31.047 C 388.211 30.997,387.498 30.889,387.395 30.807 C 387.190 30.646,386.293 30.671,385.957 30.847 M300.583 31.606 C 301.992 31.721,305.667 31.745,305.667 31.639 C 305.667 31.578,304.373 31.534,302.792 31.540 C 301.210 31.546,300.217 31.576,300.583 31.606 M308.276 31.625 C 308.234 31.694,310.817 31.751,314.017 31.752 C 317.216 31.754,319.833 31.698,319.833 31.627 C 319.833 31.462,308.378 31.460,308.276 31.625 M322.435 31.761 C 322.379 31.908,322.333 37.121,322.333 43.347 C 322.333 50.782,322.276 54.667,322.167 54.667 C 322.075 54.667,322.000 54.745,322.000 54.840 C 322.000 55.480,320.631 55.570,320.151 54.963 C 319.917 54.666,319.872 54.659,319.781 54.896 C 319.724 55.045,319.750 55.167,319.839 55.167 C 319.939 55.167,320.000 56.993,320.000 59.999 L 320.000 64.831 319.542 64.779 C 319.290 64.750,318.920 64.638,318.719 64.530 C 318.297 64.302,318.000 64.276,318.000 64.467 C 318.000 64.690,319.648 65.209,320.088 65.125 C 320.363 65.072,320.500 65.122,320.500 65.273 C 320.500 65.455,321.015 65.500,323.083 65.500 C 324.694 65.500,325.667 65.437,325.667 65.333 C 325.667 65.242,325.883 65.167,326.148 65.167 C 326.749 65.167,328.333 64.665,328.333 64.475 C 328.333 64.397,328.428 64.333,328.544 64.333 C 328.764 64.333,330.022 63.703,330.167 63.520 C 330.212 63.462,330.531 63.205,330.875 62.949 C 331.219 62.693,331.500 62.402,331.500 62.303 C 331.500 62.204,331.662 61.982,331.860 61.810 C 332.266 61.458,332.426 61.196,333.155 59.697 C 333.436 59.117,333.667 58.424,333.667 58.155 C 333.667 57.886,333.742 57.667,333.834 57.667 C 333.946 57.667,333.988 53.289,333.959 44.625 L 333.917 31.583 328.227 31.540 C 323.147 31.500,322.526 31.524,322.435 31.761 M305.745 42.500 C 305.745 48.321,305.766 50.702,305.792 47.792 C 305.817 44.881,305.817 40.119,305.792 37.208 C 305.766 34.298,305.745 36.679,305.745 42.500 M182.691 32.838 C 182.427 33.436,182.549 33.880,182.958 33.802 C 183.177 33.760,183.250 33.582,183.250 33.095 C 183.250 32.289,182.988 32.168,182.691 32.838 M170.800 38.797 C 170.926 39.470,172.500 41.495,172.500 40.985 C 172.500 40.903,172.274 40.634,171.997 40.388 C 171.487 39.934,171.000 39.125,171.000 38.734 C 171.000 38.616,170.936 38.480,170.857 38.432 C 170.779 38.383,170.753 38.547,170.800 38.797 M203.125 39.504 C 203.240 39.654,203.333 39.852,203.333 39.946 C 203.333 40.039,203.483 40.251,203.667 40.417 C 203.850 40.583,204.000 40.819,204.000 40.942 C 204.000 41.066,204.075 41.167,204.167 41.167 C 204.258 41.167,204.333 41.270,204.333 41.397 C 204.333 41.721,205.571 42.803,206.091 42.934 C 206.622 43.067,207.051 42.739,206.665 42.496 C 206.495 42.388,206.760 42.338,207.510 42.336 C 208.834 42.333,209.705 41.956,210.839 40.895 C 211.583 40.199,211.990 39.500,211.651 39.500 C 211.568 39.500,211.500 39.597,211.500 39.715 C 211.500 40.685,209.001 42.167,207.364 42.167 C 206.299 42.167,206.145 42.203,206.234 42.435 C 206.598 43.384,204.811 42.119,204.325 41.083 C 204.153 40.717,203.765 40.150,203.464 39.825 C 203.163 39.499,203.010 39.355,203.125 39.504 M175.154 40.458 L 174.750 40.917 175.177 40.542 C 175.854 39.948,177.009 40.014,177.569 40.679 C 177.806 40.961,178.000 41.126,178.000 41.044 C 178.000 40.087,175.868 39.648,175.154 40.458 M179.277 40.304 C 179.125 40.472,179.000 40.701,179.000 40.813 C 179.000 41.031,177.963 42.167,177.763 42.167 C 177.697 42.167,177.530 42.279,177.393 42.417 C 177.255 42.554,176.928 42.667,176.665 42.667 C 176.402 42.667,176.140 42.742,176.083 42.833 C 176.027 42.925,175.554 42.990,175.032 42.978 L 174.083 42.955 174.833 42.819 C 176.373 42.539,176.667 42.458,176.667 42.314 C 176.667 42.233,176.116 42.167,175.442 42.167 C 174.281 42.167,173.326 41.893,173.077 41.489 C 173.024 41.404,172.854 41.338,172.698 41.344 C 172.466 41.353,172.475 41.382,172.750 41.513 C 172.933 41.599,173.308 41.814,173.583 41.990 C 173.892 42.187,174.402 42.315,174.917 42.324 C 175.832 42.340,175.678 42.657,174.750 42.667 C 174.038 42.674,173.744 42.885,174.071 43.156 C 174.500 43.512,176.991 43.137,177.432 42.650 C 177.590 42.476,177.787 42.333,177.871 42.333 C 178.072 42.333,178.500 41.901,178.500 41.698 C 178.500 41.610,178.650 41.500,178.833 41.452 C 179.017 41.404,179.167 41.232,179.167 41.070 C 179.167 40.909,179.291 40.639,179.443 40.470 C 179.596 40.302,179.683 40.127,179.637 40.081 C 179.591 40.035,179.429 40.136,179.277 40.304 M205.487 40.458 L 205.083 40.917 205.500 40.552 C 205.791 40.297,206.193 40.168,206.833 40.124 L 207.750 40.062 206.821 40.031 C 205.996 40.003,205.846 40.052,205.487 40.458 M208.123 40.788 C 208.367 41.234,208.381 41.383,208.207 41.663 C 208.092 41.848,208.065 42.000,208.147 42.000 C 208.311 42.000,208.500 41.601,208.500 41.255 C 208.500 41.135,208.349 40.860,208.164 40.643 L 207.829 40.250 208.123 40.788 M177.250 41.500 C 177.193 41.592,176.968 41.667,176.750 41.667 C 176.532 41.667,176.305 41.745,176.246 41.840 C 176.114 42.053,176.870 41.882,177.489 41.559 C 177.782 41.406,177.828 41.335,177.635 41.334 C 177.480 41.334,177.307 41.408,177.250 41.500 M184.643 49.464 C 183.821 49.963,183.310 51.247,183.367 52.671 C 183.424 54.092,183.878 54.538,183.958 53.250 C 184.134 50.381,184.609 49.667,186.339 49.667 C 187.112 49.667,187.333 49.611,187.333 49.417 C 187.333 49.059,185.250 49.096,184.643 49.464 M196.221 51.891 C 195.656 52.275,195.333 52.807,195.333 53.353 C 195.333 53.903,195.880 53.655,196.209 52.956 C 196.371 52.614,196.615 52.333,196.751 52.333 C 196.888 52.333,197.000 52.258,197.000 52.167 C 197.000 52.075,197.112 52.000,197.250 52.000 C 197.387 52.000,197.500 51.887,197.500 51.750 C 197.500 51.391,196.851 51.463,196.221 51.891 M197.000 51.823 C 197.000 52.020,196.675 52.230,196.556 52.111 C 196.436 51.992,196.647 51.667,196.843 51.667 C 196.929 51.667,197.000 51.737,197.000 51.823 M186.741 52.348 C 186.679 52.448,186.713 52.613,186.815 52.715 C 186.917 52.817,187.000 53.072,187.000 53.283 C 187.000 53.556,187.097 53.667,187.333 53.667 C 187.746 53.667,187.785 53.076,187.407 52.537 C 187.122 52.130,186.913 52.070,186.741 52.348 M187.497 53.292 C 187.499 53.406,187.425 53.500,187.333 53.500 C 187.242 53.500,187.168 53.294,187.169 53.042 C 187.172 52.572,187.492 52.816,187.497 53.292 M174.221 57.899 C 173.930 58.005,173.555 58.210,173.388 58.354 C 173.220 58.498,172.952 58.663,172.792 58.719 C 172.581 58.794,172.500 59.004,172.500 59.474 C 172.500 60.094,172.822 60.622,173.057 60.387 C 173.222 60.222,173.189 59.500,173.016 59.500 C 172.933 59.500,172.905 59.669,172.955 59.875 C 173.030 60.186,173.007 60.214,172.818 60.037 C 172.416 59.660,173.727 58.552,174.625 58.510 C 174.966 58.494,174.861 59.140,174.490 59.339 C 173.713 59.755,174.130 60.410,175.208 60.467 C 176.256 60.521,176.473 60.864,175.922 61.593 C 175.406 62.275,175.583 62.500,176.635 62.500 C 177.660 62.500,178.243 62.879,178.734 63.863 C 178.839 64.074,179.073 64.274,179.254 64.307 C 179.965 64.438,180.152 64.777,180.443 66.458 C 180.563 67.154,180.799 67.141,181.509 66.402 C 182.267 65.613,184.016 65.782,185.751 66.812 L 186.417 67.207 191.544 67.135 C 195.194 67.083,196.728 67.005,196.869 66.865 C 196.978 66.756,197.204 66.667,197.373 66.667 C 197.541 66.667,197.863 66.546,198.088 66.398 C 198.559 66.090,199.154 66.183,199.842 66.673 C 200.360 67.042,200.500 66.962,200.500 66.295 C 200.500 65.367,201.522 64.086,202.400 63.914 C 202.684 63.858,203.128 63.731,203.385 63.632 C 203.817 63.465,203.911 63.507,204.575 64.158 C 205.556 65.122,206.317 64.674,206.331 63.125 C 206.333 62.883,206.489 62.833,207.255 62.833 C 208.349 62.833,208.505 62.623,208.011 61.812 C 207.223 60.520,208.049 58.224,209.062 58.887 C 209.369 59.088,209.494 59.105,209.547 58.954 C 209.586 58.842,209.620 58.964,209.622 59.225 C 209.626 59.854,210.428 60.715,210.598 60.273 C 210.668 60.089,210.579 59.845,210.354 59.606 C 210.159 59.398,210.000 59.143,210.000 59.039 C 210.000 58.935,209.896 58.790,209.769 58.717 C 209.641 58.643,209.510 58.441,209.477 58.268 C 209.226 56.955,207.059 58.719,207.011 60.276 C 206.999 60.654,206.338 62.044,206.125 62.139 C 206.056 62.169,206.000 62.301,206.000 62.431 C 206.000 62.581,205.822 62.667,205.510 62.667 C 205.240 62.667,204.973 62.742,204.917 62.833 C 204.599 63.348,202.688 62.694,202.361 61.958 C 202.097 61.365,201.334 62.069,201.331 62.908 C 201.326 64.116,200.439 64.757,196.632 66.303 C 196.369 66.410,194.280 66.533,191.632 66.598 L 187.083 66.710 186.083 66.257 C 185.533 66.008,184.955 65.737,184.797 65.655 C 184.640 65.572,184.096 65.455,183.589 65.396 C 183.082 65.336,182.667 65.223,182.667 65.144 C 182.667 65.065,182.550 65.000,182.406 65.000 C 181.051 65.000,179.864 64.190,180.133 63.448 C 180.557 62.275,180.469 62.154,179.226 62.205 C 178.045 62.253,178.022 62.238,177.373 61.000 C 176.989 60.268,176.449 59.500,176.317 59.500 C 176.234 59.500,176.167 59.402,176.167 59.281 C 176.167 59.161,175.942 58.847,175.667 58.583 C 175.392 58.320,175.167 58.006,175.167 57.885 C 175.167 57.630,174.951 57.633,174.221 57.899 M175.397 58.601 C 175.926 59.238,175.920 59.368,175.368 59.224 C 175.118 59.159,175.000 59.000,175.000 58.731 C 175.000 58.512,174.925 58.333,174.833 58.333 C 174.742 58.333,174.667 58.258,174.667 58.167 C 174.667 57.869,174.907 58.012,175.397 58.601 M174.333 58.246 C 174.333 58.289,174.108 58.441,173.833 58.583 C 173.287 58.866,173.159 58.752,173.625 58.399 C 173.911 58.181,174.333 58.090,174.333 58.246 M175.403 59.434 C 175.781 59.579,175.729 60.000,175.333 60.000 C 175.111 60.000,175.000 59.889,175.000 59.667 C 175.000 59.300,175.021 59.288,175.403 59.434 M176.500 60.075 C 176.500 60.189,176.650 60.417,176.833 60.583 C 177.017 60.749,177.167 60.948,177.167 61.026 C 177.167 61.103,177.017 61.167,176.833 61.167 C 176.612 61.167,176.500 61.056,176.500 60.835 C 176.500 60.652,176.357 60.414,176.183 60.305 C 176.009 60.196,175.903 60.013,175.947 59.897 C 176.045 59.642,176.500 59.788,176.500 60.075 M207.500 60.677 C 207.500 61.085,207.434 61.312,207.333 61.250 C 207.051 61.076,207.147 60.000,207.444 60.000 C 207.475 60.000,207.500 60.304,207.500 60.677 M177.164 61.958 C 177.167 62.220,176.561 62.233,176.401 61.975 C 176.336 61.869,176.421 61.682,176.590 61.558 C 176.912 61.322,177.158 61.494,177.164 61.958 M314.333 61.436 C 314.333 61.636,314.968 62.259,315.063 62.152 C 315.096 62.114,314.946 61.897,314.728 61.670 C 314.511 61.443,314.333 61.338,314.333 61.436 M177.738 62.038 C 177.841 62.245,178.122 62.453,178.363 62.499 C 178.712 62.567,178.756 62.623,178.584 62.782 C 178.414 62.938,178.304 62.911,178.075 62.657 C 177.914 62.479,177.681 62.333,177.558 62.333 C 177.426 62.333,177.333 62.150,177.333 61.889 C 177.333 61.408,177.444 61.448,177.738 62.038 M207.467 61.867 C 207.774 62.174,207.706 62.333,207.266 62.333 C 206.947 62.333,206.882 62.265,206.952 62.000 C 207.052 61.617,207.183 61.583,207.467 61.867 M176.151 62.309 C 175.905 62.394,175.779 62.222,175.921 61.993 C 176.010 61.848,176.078 61.856,176.182 62.024 C 176.265 62.157,176.252 62.274,176.151 62.309 M202.428 62.375 C 202.600 62.581,202.634 62.656,202.504 62.542 C 202.373 62.427,202.127 62.333,201.957 62.333 C 201.786 62.333,201.693 62.258,201.750 62.167 C 201.908 61.911,202.086 61.965,202.428 62.375 M180.167 62.740 C 180.167 62.964,180.092 63.193,180.000 63.250 C 179.908 63.307,179.833 63.199,179.833 63.010 C 179.833 62.821,179.758 62.667,179.667 62.667 C 179.575 62.667,179.500 62.592,179.500 62.500 C 179.500 62.408,179.650 62.333,179.833 62.333 C 180.076 62.333,180.167 62.444,180.167 62.740 M312.643 62.676 C 312.271 63.001,312.269 63.010,312.616 62.842 C 312.817 62.745,313.028 62.590,313.084 62.499 C 313.248 62.234,313.068 62.306,312.643 62.676 M202.300 62.700 C 202.581 62.981,202.550 63.128,202.167 63.333 C 201.867 63.494,201.833 63.460,201.833 63.006 C 201.833 62.468,201.975 62.375,202.300 62.700 M179.403 62.768 C 179.674 62.872,179.779 63.500,179.526 63.500 C 179.303 63.500,178.821 62.902,178.944 62.778 C 179.080 62.642,179.077 62.643,179.403 62.768 M315.779 63.052 C 316.589 63.715,317.349 64.206,317.433 64.122 C 317.478 64.078,317.249 63.885,316.924 63.693 C 316.599 63.501,316.333 63.267,316.333 63.172 C 316.333 63.078,316.221 63.000,316.083 63.000 C 315.946 63.000,315.833 62.925,315.833 62.833 C 315.833 62.742,315.715 62.667,315.571 62.667 C 315.391 62.667,315.458 62.789,315.779 63.052 M203.070 62.934 C 203.447 63.079,203.396 63.500,203.000 63.500 C 202.778 63.500,202.667 63.389,202.667 63.167 C 202.667 62.800,202.687 62.788,203.070 62.934 M206.000 63.000 C 206.000 63.092,205.733 63.167,205.407 63.167 C 205.054 63.167,204.855 63.099,204.917 63.000 C 204.973 62.908,205.240 62.833,205.510 62.833 C 205.779 62.833,206.000 62.908,206.000 63.000 M205.664 63.458 C 205.656 63.852,205.353 64.057,205.096 63.844 C 204.715 63.527,204.773 63.333,205.250 63.333 C 205.479 63.333,205.666 63.390,205.664 63.458 M179.659 63.755 C 179.755 63.695,179.833 63.769,179.833 63.918 C 179.833 64.316,179.103 64.169,179.024 63.755 C 178.971 63.474,178.999 63.458,179.223 63.645 C 179.368 63.764,179.564 63.814,179.659 63.755 M205.471 64.333 C 205.579 64.333,205.667 64.408,205.667 64.500 C 205.667 64.793,205.403 64.680,204.987 64.210 C 204.694 63.878,204.678 63.832,204.930 64.043 C 205.120 64.203,205.364 64.333,205.471 64.333 M201.001 64.542 C 200.902 64.656,200.723 64.893,200.603 65.067 C 200.482 65.243,200.298 65.331,200.192 65.266 C 199.884 65.075,199.968 64.869,200.458 64.610 C 201.044 64.301,201.227 64.278,201.001 64.542 M181.575 65.022 C 181.662 65.102,181.906 65.167,182.117 65.167 C 182.327 65.167,182.500 65.242,182.500 65.333 C 182.500 65.425,182.387 65.500,182.250 65.500 C 182.112 65.500,182.000 65.575,182.000 65.667 C 182.000 65.758,181.925 65.833,181.833 65.833 C 181.742 65.833,181.667 65.726,181.667 65.595 C 181.667 64.988,180.674 65.109,180.655 65.718 C 180.639 66.213,180.363 65.614,180.345 65.046 C 180.333 64.663,181.164 64.647,181.575 65.022 M181.303 65.695 C 181.236 66.153,180.833 66.307,180.833 65.875 C 180.833 65.529,180.968 65.333,181.206 65.333 C 181.289 65.333,181.333 65.496,181.303 65.695 M199.167 65.667 C 199.167 65.758,198.998 65.832,198.792 65.831 C 198.488 65.829,198.465 65.797,198.667 65.667 C 198.990 65.458,199.167 65.458,199.167 65.667 M200.167 65.823 C 200.167 66.294,199.819 66.434,199.554 66.071 C 199.354 65.798,199.363 65.742,199.621 65.640 C 200.091 65.454,200.167 65.480,200.167 65.823 M194.750 66.833 C 194.693 66.925,194.239 67.000,193.740 67.000 C 193.241 67.000,192.833 66.925,192.833 66.833 C 192.833 66.741,193.281 66.667,193.843 66.667 C 194.474 66.667,194.814 66.729,194.750 66.833 " stroke="none" fill="#975833" fill-rule="evenodd"></path><path id="path3" d="M175.240 0.295 C 174.412 0.589,174.209 0.717,173.426 1.448 C 173.211 1.649,172.997 1.775,172.950 1.727 C 172.902 1.680,172.814 1.797,172.754 1.987 C 172.694 2.178,172.580 2.333,172.502 2.333 C 172.424 2.333,172.309 2.564,172.247 2.845 C 172.186 3.127,172.091 3.314,172.038 3.260 C 171.985 3.207,171.842 3.446,171.721 3.790 C 171.451 4.555,171.404 6.971,171.653 7.220 C 171.752 7.319,171.833 7.572,171.833 7.783 C 171.833 7.994,171.908 8.167,172.000 8.167 C 172.092 8.167,172.167 8.282,172.167 8.422 C 172.167 8.562,172.279 8.720,172.417 8.773 C 172.554 8.826,172.667 8.973,172.667 9.101 C 172.667 9.229,172.746 9.333,172.843 9.333 C 172.940 9.333,172.977 9.403,172.924 9.488 C 172.872 9.573,172.966 9.686,173.135 9.740 C 173.303 9.793,173.586 9.968,173.762 10.127 C 174.185 10.509,175.260 11.000,175.672 11.000 C 175.853 11.000,176.000 11.064,176.000 11.142 C 176.000 11.221,176.563 11.300,177.250 11.318 C 178.035 11.339,178.500 11.286,178.500 11.175 C 178.500 11.079,178.725 11.000,179.000 11.000 C 179.275 11.000,179.500 10.925,179.500 10.833 C 179.500 10.742,179.556 10.682,179.625 10.700 C 179.852 10.760,180.500 10.480,180.500 10.322 C 180.500 10.237,180.621 10.167,180.769 10.167 C 181.096 10.167,182.667 8.556,182.667 8.220 C 182.667 8.088,182.742 8.027,182.833 8.083 C 182.925 8.140,183.000 8.047,183.000 7.877 C 183.000 7.706,183.084 7.483,183.187 7.380 C 183.429 7.137,183.608 4.167,183.380 4.167 C 183.288 4.167,183.249 3.979,183.293 3.750 C 183.339 3.507,183.295 3.333,183.186 3.333 C 183.084 3.333,183.000 3.221,183.000 3.083 C 183.000 2.946,182.925 2.833,182.833 2.833 C 182.742 2.833,182.667 2.731,182.667 2.606 C 182.667 2.481,182.443 2.125,182.169 1.814 C 181.896 1.504,181.671 1.189,181.669 1.115 C 181.668 1.041,181.605 1.018,181.530 1.065 C 181.455 1.111,181.191 0.961,180.943 0.731 C 180.149 -0.006,176.811 -0.261,175.240 0.295 M161.000 11.699 C 159.719 12.241,158.716 12.833,159.078 12.833 C 159.134 12.833,159.022 13.002,158.828 13.208 C 158.635 13.415,158.436 13.788,158.385 14.039 C 158.334 14.290,158.227 14.454,158.146 14.404 C 158.066 14.354,158.000 14.806,158.000 15.407 C 158.000 16.024,158.072 16.500,158.167 16.500 C 158.258 16.500,158.333 16.658,158.333 16.851 C 158.333 17.285,159.230 18.445,159.676 18.586 C 159.857 18.644,159.962 18.760,159.909 18.845 C 159.857 18.930,160.001 19.000,160.230 19.000 C 160.459 19.000,160.689 19.068,160.740 19.151 C 160.883 19.382,162.989 19.319,163.469 19.070 C 163.702 18.949,163.966 18.896,164.055 18.951 C 164.146 19.007,164.165 18.966,164.099 18.859 C 163.995 18.690,164.098 18.635,164.432 18.680 C 164.626 18.706,165.442 17.664,165.822 16.904 C 166.456 15.633,166.154 13.690,165.192 12.856 C 164.998 12.687,164.876 12.513,164.922 12.467 C 164.967 12.422,164.665 12.246,164.252 12.075 C 163.838 11.905,163.500 11.705,163.500 11.632 C 163.500 11.439,161.488 11.492,161.000 11.699 M155.500 23.667 C 155.500 23.758,155.331 23.834,155.125 23.836 C 154.590 23.839,153.991 24.018,154.073 24.151 C 154.112 24.213,153.923 24.410,153.654 24.590 C 153.385 24.770,153.118 25.063,153.060 25.242 C 153.003 25.421,152.853 25.670,152.728 25.796 C 152.183 26.341,152.564 29.520,153.209 29.806 C 153.279 29.837,153.296 29.925,153.249 30.002 C 153.201 30.079,153.313 30.191,153.498 30.249 C 153.682 30.308,153.833 30.426,153.833 30.511 C 153.833 30.597,153.940 30.667,154.069 30.667 C 154.199 30.667,154.335 30.754,154.371 30.862 C 154.448 31.093,157.168 31.274,157.618 31.078 C 157.782 31.006,158.018 30.964,158.142 30.985 C 158.266 31.005,158.317 30.942,158.257 30.844 C 158.196 30.747,158.268 30.667,158.415 30.667 C 158.681 30.667,159.831 29.543,159.833 29.282 C 159.833 29.208,159.893 29.184,159.965 29.229 C 160.156 29.347,160.229 28.781,160.240 27.097 C 160.247 26.049,160.189 25.590,160.042 25.542 C 159.927 25.503,159.833 25.367,159.833 25.238 C 159.833 24.923,159.314 24.333,159.036 24.333 C 158.914 24.333,158.859 24.260,158.915 24.170 C 158.971 24.079,158.718 23.959,158.341 23.899 C 157.970 23.839,157.667 23.725,157.667 23.645 C 157.667 23.565,157.179 23.500,156.583 23.500 C 155.972 23.500,155.500 23.573,155.500 23.667 M0.000 48.065 L 0.000 64.667 5.667 64.667 L 11.333 64.667 11.333 53.083 L 11.333 41.500 13.750 41.500 C 15.106 41.500,16.167 41.567,16.167 41.653 C 16.167 41.737,16.673 41.840,17.292 41.881 C 17.910 41.922,18.529 41.991,18.667 42.035 C 18.804 42.079,19.142 42.173,19.417 42.244 C 21.310 42.734,23.195 44.355,23.420 45.687 C 23.480 46.042,23.588 46.333,23.660 46.333 C 23.732 46.333,23.804 47.046,23.820 47.917 C 23.837 48.790,23.781 49.500,23.697 49.500 C 23.612 49.500,23.503 49.854,23.455 50.286 C 23.406 50.719,23.284 51.100,23.183 51.133 C 23.082 51.167,23.000 51.269,23.000 51.361 C 23.000 51.550,21.347 53.325,21.187 53.308 C 20.961 53.284,20.333 53.546,20.333 53.665 C 20.333 53.734,20.022 53.841,19.641 53.901 C 19.260 53.962,18.866 54.066,18.766 54.131 C 18.338 54.410,16.535 54.607,14.890 54.555 C 12.462 54.478,12.667 54.001,12.667 59.737 L 12.667 64.600 13.246 64.809 C 13.884 65.040,19.630 65.028,19.773 64.795 C 19.817 64.725,20.186 64.667,20.593 64.667 C 21.000 64.667,21.333 64.600,21.333 64.519 C 21.333 64.438,21.745 64.320,22.247 64.258 C 22.750 64.195,23.200 64.080,23.248 64.003 C 23.296 63.926,23.653 63.809,24.043 63.744 C 24.745 63.626,26.789 62.672,27.404 62.176 C 27.678 61.954,27.705 61.953,27.591 62.167 C 27.518 62.304,27.658 62.210,27.902 61.958 C 28.147 61.706,28.422 61.500,28.514 61.500 C 28.606 61.500,28.839 61.353,29.032 61.172 C 29.226 60.992,29.466 60.892,29.567 60.949 C 29.668 61.007,29.699 60.996,29.636 60.927 C 29.511 60.787,30.415 59.833,30.672 59.833 C 30.761 59.833,30.833 59.763,30.833 59.678 C 30.833 59.592,30.983 59.475,31.167 59.417 C 31.350 59.358,31.500 59.203,31.500 59.071 C 31.500 58.939,31.694 58.663,31.932 58.457 C 32.404 58.049,33.333 56.745,33.333 56.492 C 33.333 56.405,33.407 56.333,33.497 56.333 C 33.587 56.333,33.707 56.146,33.765 55.918 C 33.822 55.689,33.936 55.544,34.018 55.594 C 34.100 55.645,34.167 55.532,34.167 55.343 C 34.167 55.154,34.239 55.000,34.328 55.000 C 34.417 55.000,34.449 54.895,34.400 54.767 C 34.351 54.639,34.391 54.484,34.489 54.424 C 34.587 54.363,34.667 54.164,34.667 53.980 C 34.667 53.797,34.733 53.688,34.814 53.738 C 34.896 53.788,35.016 53.399,35.081 52.873 C 35.147 52.347,35.287 51.863,35.392 51.798 C 35.676 51.622,35.660 44.426,35.375 44.142 C 35.260 44.027,35.167 43.700,35.167 43.415 C 35.167 43.130,35.057 42.751,34.922 42.574 C 34.787 42.396,34.675 42.119,34.672 41.958 C 34.669 41.798,34.579 41.667,34.472 41.667 C 34.365 41.667,34.322 41.622,34.377 41.568 C 34.486 41.458,33.743 40.052,33.388 39.697 C 33.265 39.574,33.213 39.393,33.274 39.294 C 33.337 39.192,33.307 39.163,33.204 39.227 C 33.105 39.288,32.976 39.187,32.917 39.002 C 32.859 38.818,32.741 38.667,32.655 38.667 C 32.570 38.667,32.500 38.585,32.500 38.485 C 32.500 38.235,31.899 37.490,31.787 37.602 C 31.738 37.651,31.648 37.536,31.587 37.346 C 31.527 37.156,31.426 36.998,31.364 36.996 C 31.218 36.991,30.000 35.897,30.048 35.813 C 30.067 35.779,30.052 35.768,30.015 35.791 C 29.977 35.813,29.701 35.645,29.401 35.416 C 29.101 35.187,28.801 35.000,28.735 35.000 C 28.669 35.000,28.369 34.813,28.069 34.583 C 27.768 34.354,27.409 34.167,27.271 34.167 C 27.133 34.167,26.977 34.097,26.925 34.013 C 26.872 33.928,26.592 33.807,26.301 33.743 C 26.010 33.679,25.523 33.487,25.217 33.315 C 24.912 33.144,24.362 32.955,23.994 32.896 C 23.627 32.838,23.288 32.728,23.241 32.652 C 23.195 32.577,22.709 32.465,22.162 32.403 C 21.614 32.341,21.167 32.238,21.167 32.174 C 21.167 32.110,20.740 32.040,20.218 32.019 C 19.696 31.998,19.195 31.934,19.104 31.878 C 18.783 31.680,17.827 31.650,8.958 31.557 L 0.000 31.463 0.000 48.065 M40.333 48.093 L 40.333 64.667 46.066 64.667 C 51.139 64.667,51.809 64.636,51.899 64.403 C 51.954 64.258,52.000 56.883,52.000 48.013 L 52.000 31.887 46.531 31.773 C 43.524 31.711,40.899 31.628,40.698 31.589 L 40.333 31.519 40.333 48.093 M62.385 35.739 C 62.276 35.863,62.220 35.997,62.260 36.038 C 62.300 36.078,62.145 36.211,61.916 36.333 C 61.687 36.456,61.500 36.656,61.500 36.778 C 61.500 36.900,61.421 37.000,61.323 37.000 C 61.226 37.000,61.201 36.913,61.266 36.808 C 61.341 36.686,61.311 36.661,61.184 36.739 C 61.031 36.834,61.030 36.918,61.179 37.098 C 61.362 37.318,61.144 37.424,60.642 37.359 C 60.583 37.351,60.573 37.492,60.620 37.672 C 60.672 37.872,60.622 38.000,60.492 38.000 C 60.374 38.000,60.328 38.050,60.388 38.111 C 60.449 38.171,60.285 38.415,60.022 38.652 C 59.760 38.889,59.565 39.205,59.589 39.355 C 59.619 39.547,59.539 39.602,59.316 39.544 C 59.077 39.481,59.000 39.550,59.000 39.824 C 59.000 40.023,58.934 40.145,58.852 40.095 C 58.716 40.011,58.441 40.590,58.482 40.875 C 58.492 40.944,58.421 41.000,58.323 41.000 C 58.226 41.000,58.190 41.069,58.242 41.153 C 58.294 41.238,58.230 41.413,58.099 41.544 C 57.968 41.674,57.874 41.924,57.889 42.099 C 57.904 42.274,57.833 42.401,57.731 42.383 C 57.619 42.362,57.568 42.543,57.603 42.841 C 57.634 43.112,57.589 43.333,57.502 43.333 C 57.415 43.333,57.387 43.445,57.439 43.582 C 57.492 43.720,57.423 43.873,57.284 43.927 C 57.130 43.986,57.033 44.238,57.033 44.578 C 57.033 44.883,56.977 45.309,56.907 45.525 C 56.726 46.090,56.712 50.211,56.890 50.458 C 56.990 50.597,56.964 50.668,56.812 50.669 C 56.627 50.671,56.630 50.701,56.825 50.825 C 56.966 50.914,57.070 51.250,57.075 51.634 C 57.081 52.094,57.147 52.266,57.296 52.209 C 57.451 52.150,57.488 52.290,57.433 52.733 C 57.390 53.080,57.424 53.297,57.512 53.242 C 57.597 53.190,57.667 53.301,57.667 53.490 C 57.667 53.679,57.742 53.833,57.833 53.833 C 57.925 53.833,58.000 53.975,58.000 54.148 C 58.000 54.322,58.145 54.787,58.322 55.183 C 58.499 55.578,58.600 55.973,58.546 56.060 C 58.492 56.147,58.527 56.170,58.623 56.111 C 58.849 55.971,59.384 56.784,59.230 57.033 C 59.153 57.157,59.204 57.188,59.377 57.122 C 59.750 56.978,60.053 57.376,59.788 57.662 C 59.623 57.839,59.637 57.864,59.859 57.786 C 60.045 57.721,60.121 57.774,60.096 57.951 C 60.074 58.094,60.222 58.389,60.423 58.606 C 60.802 59.015,61.109 59.144,60.901 58.808 C 60.826 58.687,60.855 58.660,60.977 58.736 C 61.084 58.802,61.129 58.927,61.075 59.013 C 61.022 59.099,61.096 59.214,61.238 59.269 C 61.381 59.323,61.462 59.427,61.418 59.499 C 61.373 59.570,61.463 59.731,61.617 59.856 C 61.858 60.051,61.878 60.048,61.756 59.833 C 61.678 59.696,61.938 59.921,62.333 60.333 C 62.728 60.746,63.010 60.964,62.958 60.819 C 62.907 60.673,62.841 54.917,62.812 48.027 C 62.783 41.137,62.720 35.503,62.672 35.506 C 62.623 35.510,62.494 35.614,62.385 35.739 " stroke="none" fill="#f7cc2b" fill-rule="evenodd"></path><path id="path4" d="M174.917 28.667 C 174.860 28.758,174.640 28.833,174.427 28.833 C 173.372 28.833,173.364 30.637,174.417 31.363 C 175.454 32.078,176.167 31.955,177.375 30.855 C 177.878 30.397,178.033 29.100,177.633 28.700 C 177.389 28.456,175.064 28.427,174.917 28.667 M205.442 28.805 C 204.984 29.311,205.080 30.358,205.621 30.752 C 205.871 30.934,206.236 31.252,206.432 31.458 C 206.869 31.918,207.768 31.958,208.316 31.542 C 209.229 30.848,209.481 30.553,209.578 30.068 C 209.692 29.502,209.616 29.406,208.620 28.851 C 207.769 28.377,205.855 28.349,205.442 28.805 M175.183 40.566 C 174.411 41.388,175.426 42.640,176.221 41.845 C 176.320 41.747,176.520 41.667,176.667 41.667 C 177.066 41.667,177.831 41.276,177.832 41.071 C 177.838 40.211,175.869 39.836,175.183 40.566 M205.529 40.552 C 205.012 41.102,205.500 41.667,206.492 41.667 C 206.680 41.667,206.833 41.742,206.833 41.833 C 206.833 41.925,207.081 42.000,207.383 42.000 C 208.345 42.000,208.608 41.394,207.988 40.606 C 207.508 39.996,206.081 39.965,205.529 40.552 M175.000 59.667 C 175.000 59.889,175.111 60.000,175.333 60.000 C 175.711 60.000,175.760 59.827,175.467 59.533 C 175.173 59.240,175.000 59.289,175.000 59.667 M176.413 61.672 C 176.349 61.777,176.374 61.941,176.470 62.037 C 176.694 62.261,177.216 62.065,177.125 61.792 C 177.032 61.513,176.561 61.434,176.413 61.672 M207.032 62.011 C 206.858 62.290,206.876 62.333,207.165 62.333 C 207.349 62.333,207.500 62.225,207.500 62.093 C 207.500 61.706,207.250 61.662,207.032 62.011 M201.833 62.901 C 201.833 63.220,201.902 63.284,202.167 63.215 C 202.549 63.115,202.583 62.983,202.300 62.700 C 201.992 62.392,201.833 62.461,201.833 62.901 M179.000 62.980 C 179.000 63.190,179.489 63.566,179.608 63.448 C 179.779 63.277,179.524 62.833,179.255 62.833 C 179.115 62.833,179.000 62.899,179.000 62.980 M204.833 63.480 C 204.833 63.812,205.351 64.074,205.510 63.823 C 205.752 63.441,205.695 63.333,205.250 63.333 C 205.021 63.333,204.833 63.399,204.833 63.480 M180.947 65.442 C 180.885 65.504,180.833 65.709,180.833 65.897 C 180.833 66.219,180.850 66.222,181.118 65.954 C 181.312 65.759,181.348 65.615,181.232 65.498 C 181.138 65.405,181.010 65.379,180.947 65.442 M199.668 65.662 C 199.480 65.781,199.466 65.866,199.612 66.012 C 199.840 66.240,200.167 66.080,200.167 65.740 C 200.167 65.463,200.020 65.440,199.668 65.662 " stroke="none" fill="#eff1ef" fill-rule="evenodd"></path></g></svg>