<?xml version="1.0" encoding="utf-8"?>
<!-- Generator: Adobe Illustrator 22.0.1, SVG Export Plug-In . SVG Version: 6.00 Build 0)  -->
<svg version="1.1" id="Layer_1" xmlns="http://www.w3.org/2000/svg" xmlns:xlink="http://www.w3.org/1999/xlink" x="0px" y="0px"
	 viewBox="0 0 256 256" style="enable-background:new 0 0 256 256;" xml:space="preserve">
<style type="text/css">
	.st0{fill:url(#SVGID_1_);}
	.st1{fill:#FFFFFF;}
	.st2{fill:url(#SVGID_2_);}
</style>
<g>
	<linearGradient id="SVGID_1_" gradientUnits="userSpaceOnUse" x1="15.5809" y1="118.4019" x2="249.9867" y2="118.4019">
		<stop  offset="0" style="stop-color:#F26436"/>
		<stop  offset="0.4894" style="stop-color:#F26436"/>
		<stop  offset="0.9995" style="stop-color:#EF404F"/>
	</linearGradient>
	<path class="st0" d="M250,231.3c0,0-53.9-29.2-56.6-59.4c15.1-17.7,24.3-40.6,24.3-65.6c0-55.8-45.2-101-101-101
		c-55.8,0-101,45.2-101,101c0,55.8,45.2,101,101,101c8.2,0,16.2-1,23.8-2.8C158,216.5,193,233.1,250,231.3z"/>
	<path class="st1" d="M53.7,110.1c0.1-8.7,1.9-16.9,5.3-24.5c3.5-7.6,8.1-14.3,13.9-20c5.8-5.7,12.6-10.2,20.3-13.5
		c7.7-3.3,16-5,24.8-5c8.8,0,17.1,1.7,24.9,5c7.8,3.4,14.6,7.9,20.5,13.8c5.9,5.8,10.5,12.6,13.9,20.4c3.4,7.8,5.1,16.1,5.1,24.9
		c0,8.6-1.7,16.6-5,24.1c-3.4,7.5-7.9,14.1-13.6,19.7c-5.7,5.7-12.4,10.2-20,13.5c-7.6,3.3-15.7,5.2-24.2,5.5v5.2
		c0,2.7-0.5,5.3-1.4,7.8c-0.9,2.5-2.3,4.6-4,6.4c-1.7,1.8-3.8,3.2-6.1,4.2c-2.3,1-4.8,1.6-7.5,1.6c-2.8,0-5.5-0.5-7.9-1.6
		c-2.4-1-4.5-2.5-6.4-4.2c-1.8-1.8-3.2-3.9-4.2-6.4c-1-2.4-1.5-5-1.5-7.8v-24.5c0-2.7,0.5-5.3,1.6-7.6c1-2.4,2.5-4.4,4.2-6.2
		c1.8-1.8,3.9-3.2,6.4-4.2c2.5-1,5.1-1.6,7.8-1.6h17.4c3.2,0,6.4-0.6,9.5-1.9c3.1-1.3,5.8-3,8.2-5.1c2.4-2.1,4.2-4.7,5.7-7.5
		c1.4-2.9,2.1-6,2.1-9.3c0-3.2-0.6-6.4-1.7-9.4c-1.2-3-2.8-5.7-5-8c-2.2-2.4-4.9-4.2-8-5.7c-3.1-1.4-6.7-2.1-10.5-2.1
		c-3.4,0-6.5,0.6-9.6,1.8c-3,1.2-5.7,2.9-8.1,5c-2.4,2.1-4.2,4.7-5.7,7.7c-1.4,3-2.2,6.3-2.3,9.8v0.8c0,2.7-0.5,5.3-1.4,7.8
		c-0.9,2.5-2.2,4.6-3.9,6.4c-1.6,1.8-3.6,3.3-5.9,4.3c-2.3,1.1-4.8,1.6-7.5,1.6c-2.8,0-5.5-0.5-7.9-1.6c-2.5-1-4.6-2.5-6.4-4.3
		c-1.8-1.8-3.3-4-4.3-6.4c-1.1-2.5-1.6-5.1-1.6-7.8V110.1z"/>
	<linearGradient id="SVGID_2_" gradientUnits="userSpaceOnUse" x1="79.9189" y1="230.9527" x2="120.6233" y2="230.9527">
		<stop  offset="0" style="stop-color:#F26436"/>
		<stop  offset="0.4894" style="stop-color:#F26436"/>
		<stop  offset="0.9995" style="stop-color:#EF404F"/>
	</linearGradient>
	<path class="st2" d="M81.5,223.1c1-2.5,2.5-4.7,4.4-6.5c1.9-1.8,4.1-3.3,6.5-4.4c2.5-1.1,5.1-1.7,7.9-1.7c2.7,0,5.3,0.6,7.8,1.7
		c2.5,1.1,4.6,2.6,6.4,4.4c1.8,1.8,3.3,4,4.4,6.5c1.1,2.5,1.7,5.2,1.7,8c0,2.7-0.6,5.3-1.7,7.8c-1.1,2.5-2.6,4.6-4.4,6.4
		c-1.8,1.8-4,3.3-6.4,4.4c-2.5,1.1-5.1,1.6-7.8,1.6c-2.8,0-5.5-0.5-7.9-1.6c-2.5-1.1-4.6-2.6-6.5-4.4c-1.9-1.8-3.4-4-4.4-6.4
		c-1-2.5-1.6-5.1-1.6-7.8C79.9,228.3,80.4,225.6,81.5,223.1z"/>
</g>
</svg>
