<?xml version="1.0" encoding="UTF-8"?>
<svg width="64px" height="64px" viewBox="0 0 64 64" version="1.1" xmlns="http://www.w3.org/2000/svg" xmlns:xlink="http://www.w3.org/1999/xlink">
    <!-- Generator: Sketch 53.2 (72643) - https://sketchapp.com -->
    <title>bnb</title>
    <desc>Created with Sketch.</desc>
    <g id="Page-1" stroke="none" stroke-width="1" fill="none" fill-rule="evenodd">
        <g id="bnb" fill="#F3BA2F" fill-rule="nonzero">
            <path d="M19.570688,26.893312 L32,14.464 L44.4352,26.898688 L51.6672,19.666688 L32,0 L12.3392,19.6608 L19.570944,26.8928 L19.570688,26.893312 Z M0,32 L7.232256,24.76672 L14.464,31.998464 L7.231744,39.23072 L0,32 Z M19.570688,37.107456 L32,49.536 L44.434944,37.101568 L51.670784,44.329728 L51.6672,44.333568 L32,64 L12.3392,44.3392 L12.32896,44.32896 L19.571456,37.106688 L19.570688,37.107456 Z M49.536,32.003072 L56.768256,24.770816 L64,32.00256 L56.768,39.234816 L49.536,32.003072 Z" id="Shape"></path>
            <polyline id="Path" points="39.334912 31.99616 39.337984 31.99616 32 24.657664 26.576128 30.08 26.576128 30.08 25.953024 30.70336 24.667904 31.988736 24.657664 31.99872 24.667904 32.009216 32 39.342336 39.338496 32.00384 39.34208 31.999744 39.335424 31.99616"></polyline>
        </g>
    </g>
</svg>